<?xml version="1.0" encoding="UTF-8"?>
<svg version="1.1" xmlns="http://www.w3.org/2000/svg" width="192" height="192">
<path d="M0 0 C0.85722656 0.13921875 1.71445313 0.2784375 2.59765625 0.421875 C2.92765625 0.091875 3.25765625 -0.238125 3.59765625 -0.578125 C13.47610692 -1.36212902 21.19614395 1.65924979 28.859375 7.87890625 C36.21601897 14.40896101 42.1496838 24.95197778 42.8359375 34.86328125 C43.03450125 42.48386121 42.92139435 48.58497357 39.27734375 55.50390625 C39.05304688 56.13683594 38.82875 56.76976562 38.59765625 57.421875 C39.25765625 58.411875 39.91765625 59.401875 40.59765625 60.421875 C41.62019948 67.08455141 40.94602091 72.23663564 37.02734375 77.73828125 C35.59765625 79.421875 35.59765625 79.421875 33.03515625 81.734375 C29.4305393 85.70869625 28.18397038 90.36162154 26.59765625 95.421875 C27.18933594 95.59203125 27.78101562 95.7621875 28.390625 95.9375 C35.81900933 98.21569944 39.7311585 100.61351575 43.66015625 107.484375 C45.70222859 111.34162276 47.15610301 115.06179786 48.41015625 119.234375 C50.53678146 125.37021167 53.98499972 127.52171813 59.59765625 130.421875 C61.49433246 131.44114144 63.39015254 132.46200243 65.28515625 133.484375 C66.20296875 133.97550781 67.12078125 134.46664062 68.06640625 134.97265625 C71.31794206 136.83426086 73.91383334 138.81058785 76.59765625 141.421875 C76.59765625 142.081875 76.59765625 142.741875 76.59765625 143.421875 C77.25765625 143.421875 77.91765625 143.421875 78.59765625 143.421875 C82.01503302 148.93935776 84.1813868 154.46298622 86.22265625 160.609375 C86.81658345 162.37451639 87.41285366 164.13887154 88.01171875 165.90234375 C88.26904785 166.67473389 88.52637695 167.44712402 88.79150391 168.24291992 C89.58819875 170.39631225 90.56621323 172.37324125 91.59765625 174.421875 C92.18703203 176.38736213 92.72557573 178.3685424 93.22265625 180.359375 C93.48304688 181.37902344 93.7434375 182.39867187 94.01171875 183.44921875 C94.59765625 186.421875 94.59765625 186.421875 94.59765625 191.421875 C31.23765625 191.421875 -32.12234375 191.421875 -97.40234375 191.421875 C-96.62569771 184.43206068 -95.60382865 178.86356521 -93.58984375 172.296875 C-93.21762695 171.01490234 -93.21762695 171.01490234 -92.83789062 169.70703125 C-91.6623444 165.81247354 -90.45462388 162.28477144 -88.328125 158.8046875 C-86.68180527 155.91277495 -86.11589453 154.46912352 -85.54296875 151.359375 C-84.48476405 146.60432531 -81.87034774 144.37687641 -78.15234375 141.421875 C-77.23038208 140.65822632 -77.23038208 140.65822632 -76.28979492 139.87915039 C-70.9637256 135.59327086 -65.30313072 132.22240268 -59.265625 129.04296875 C-55.90787891 127.18958993 -55.90787891 127.18958993 -53.40234375 124.421875 C-53.26563917 122.27194023 -53.26563917 122.27194023 -53.58984375 119.921875 C-53.77248763 113.3563083 -51.31603985 108.59295006 -47.40234375 103.421875 C-42.60776493 98.952854 -37.82188453 97.76577897 -31.40234375 97.421875 C-31.76328125 96.59042969 -32.12421875 95.75898437 -32.49609375 94.90234375 C-33.1921875 93.27232422 -33.1921875 93.27232422 -33.90234375 91.609375 C-34.36640625 90.53042969 -34.83046875 89.45148438 -35.30859375 88.33984375 C-36.40234375 85.421875 -36.40234375 85.421875 -36.40234375 82.421875 C-37.00691406 82.1640625 -37.61148438 81.90625 -38.234375 81.640625 C-41.97297111 79.53892773 -43.69351148 76.27312385 -45.40234375 72.421875 C-47.34031417 64.12338626 -47.34031417 64.12338626 -45.2890625 60.40234375 C-44.1402857 58.42746468 -44.1402857 58.42746468 -45.08203125 56.30078125 C-45.47648437 55.53636719 -45.8709375 54.77195313 -46.27734375 53.984375 C-50.03239309 45.32866804 -49.25528909 35.95276391 -46.515625 27.05859375 C-43.62673511 20.21648611 -38.88705675 14.37149405 -33.40234375 9.421875 C-32.79519531 8.84566406 -32.18804687 8.26945313 -31.5625 7.67578125 C-21.98777388 -1.16384114 -12.74774193 -2.16609163 0 0 Z " fill="#0A0707" transform="translate(97.40234375,0.578125)"/>
<path d="M0 0 C0.85722656 0.13921875 1.71445313 0.2784375 2.59765625 0.421875 C2.92765625 0.091875 3.25765625 -0.238125 3.59765625 -0.578125 C13.47610692 -1.36212902 21.19614395 1.65924979 28.859375 7.87890625 C36.21601897 14.40896101 42.1496838 24.95197778 42.8359375 34.86328125 C43.05038098 42.94425923 43.02097393 50.30259363 38.59765625 57.421875 C37.60765625 57.916875 37.60765625 57.916875 36.59765625 58.421875 C35.48131473 60.07238788 35.48131473 60.07238788 34.47265625 61.984375 C33.85390625 63.11875 33.23515625 64.253125 32.59765625 65.421875 C31.11265625 63.441875 31.11265625 63.441875 29.59765625 61.421875 C28.60765625 61.916875 28.60765625 61.916875 27.59765625 62.421875 C27.22640625 60.75125 27.22640625 60.75125 26.84765625 59.046875 C25.98760286 55.37572302 25.98760286 55.37572302 23.47265625 53.984375 C22.85390625 53.79875 22.23515625 53.613125 21.59765625 53.421875 C22.58765625 53.091875 23.57765625 52.761875 24.59765625 52.421875 C24.59765625 51.761875 24.59765625 51.101875 24.59765625 50.421875 C23.51484375 49.98875 23.51484375 49.98875 22.41015625 49.546875 C19.80598958 48.50520833 17.20182292 47.46354167 14.59765625 46.421875 C14.59765625 47.741875 14.59765625 49.061875 14.59765625 50.421875 C11.2206 49.88461605 7.90097025 49.31122877 4.59765625 48.421875 C4.59765625 50.071875 4.59765625 51.721875 4.59765625 53.421875 C-1.80641365 53.87930856 -5.97885967 52.91021922 -11.40234375 49.421875 C-12.06234375 48.761875 -12.72234375 48.101875 -13.40234375 47.421875 C-15.82949581 46.74247033 -15.82949581 46.74247033 -18.52734375 46.296875 C-19.43742187 46.12929688 -20.3475 45.96171875 -21.28515625 45.7890625 C-21.98382813 45.66789062 -22.6825 45.54671875 -23.40234375 45.421875 C-23.40234375 46.741875 -23.40234375 48.061875 -23.40234375 49.421875 C-26.86734375 48.926875 -26.86734375 48.926875 -30.40234375 48.421875 C-30.40234375 47.761875 -30.40234375 47.101875 -30.40234375 46.421875 C-31.06234375 46.421875 -31.72234375 46.421875 -32.40234375 46.421875 C-33.06234375 48.731875 -33.72234375 51.041875 -34.40234375 53.421875 C-36.38234375 53.916875 -36.38234375 53.916875 -38.40234375 54.421875 C-38.40234375 55.741875 -38.40234375 57.061875 -38.40234375 58.421875 C-37.74234375 58.421875 -37.08234375 58.421875 -36.40234375 58.421875 C-36.40234375 61.391875 -36.40234375 64.361875 -36.40234375 67.421875 C-39.40234375 64.421875 -39.40234375 64.421875 -40.33984375 62.484375 C-41.31466047 60.29423614 -41.31466047 60.29423614 -43.33984375 58.671875 C-48.6346443 52.89572894 -48.89607348 46.22217268 -48.6796875 38.7265625 C-47.66427076 26.62737143 -42.39004238 17.53272499 -33.40234375 9.421875 C-32.79519531 8.84566406 -32.18804687 8.26945313 -31.5625 7.67578125 C-21.98777388 -1.16384114 -12.74774193 -2.16609163 0 0 Z " fill="#0D0C0C" transform="translate(97.40234375,0.578125)"/>
<path d="M0 0 C0.66 0.99 1.32 1.98 2 3 C4.04944138 3.76069161 4.04944138 3.76069161 6.375 4.125 C7.14585938 4.27195312 7.91671875 4.41890625 8.7109375 4.5703125 C10.19300642 4.84851656 11.67735733 5.11493067 13.1640625 5.3671875 C15 6 15 6 17 9 C16.64980952 14.07469018 15.22253434 18.6075983 13.5625 23.375 C10.75505773 31.80435796 9.73162511 40.17681954 9 49 C8.34 49 7.68 49 7 49 C6.814375 50.794375 6.814375 50.794375 6.625 52.625 C6.30302972 55.25595715 5.87820453 57.35016197 5 59.875 C3.5439206 64.05115442 3.5439206 64.05115442 3 73 C-12.84 73 -28.68 73 -45 73 C-45.495 65.575 -45.495 65.575 -46 58 C-48.02591955 48.04822593 -51.58668419 39.00021202 -55.41601562 29.62304688 C-58.13425458 22.79291281 -60.01387363 16.29149685 -61 9 C-56.375 6 -56.375 6 -53 6 C-52.34 7.32 -51.68 8.64 -51 10 C-50.34 9.34 -49.68 8.68 -49 8 C-44.09359686 8.39781647 -40.43882018 10.56117982 -37 14 C-33.33760822 14.37514082 -29.67502077 14.12457698 -26 14 C-25.16597656 14.02835938 -24.33195312 14.05671875 -23.47265625 14.0859375 C-14.35786754 13.99730098 -7.8979307 7.80080618 -1.6484375 1.70703125 C-0.83246094 0.86205078 -0.83246094 0.86205078 0 0 Z " fill="#9B1613" transform="translate(118,119)"/>
<path d="M0 0 C4.13782924 4.27575688 5.05944297 8.31953056 6 14 C3.36 14.66 0.72 15.32 -2 16 C-2 16.66 -2 17.32 -2 18 C-2.66 18 -3.32 18 -4 18 C-4.185625 18.7734375 -4.185625 18.7734375 -4.375 19.5625 C-5 22 -5 22 -6.14453125 24.98828125 C-7.56661679 30.03550858 -6.41010326 34.59983347 -5.3125 39.625 C-5.09553467 40.65246338 -4.87856934 41.67992676 -4.6550293 42.73852539 C-2.04844783 54.1328644 2.22718445 64.80358209 6.57421875 75.62109375 C10.82690144 86.53731652 11 93.43700526 11 106 C-13.09 106 -37.18 106 -62 106 C-61.22335396 99.01018568 -60.2014849 93.44169021 -58.1875 86.875 C-57.8152832 85.59302734 -57.8152832 85.59302734 -57.43554688 84.28515625 C-56.26000065 80.39059854 -55.05228013 76.86289644 -52.92578125 73.3828125 C-51.27946152 70.49089995 -50.71355078 69.04724852 -50.140625 65.9375 C-49.0824203 61.18245031 -46.46800399 58.95500141 -42.75 56 C-42.13535889 55.49090088 -41.52071777 54.98180176 -40.88745117 54.45727539 C-35.56138185 50.17139586 -29.90078697 46.80052768 -23.86328125 43.62109375 C-20.50553516 41.76771493 -20.50553516 41.76771493 -18 39 C-17.86329542 36.85006523 -17.86329542 36.85006523 -18.1875 34.5 C-18.37014388 27.9344333 -15.9136961 23.17107506 -12 18 C-7.20542118 13.530979 -2.41954078 12.34390397 4 12 C3.71125 11.38511719 3.4225 10.77023438 3.125 10.13671875 C2.75375 9.32847656 2.3825 8.52023438 2 7.6875 C1.62875 6.88699219 1.2575 6.08648437 0.875 5.26171875 C0 3 0 3 0 0 Z " fill="#1D4578" transform="translate(62,86)"/>
<path d="M0 0 C0.33 0.66 0.66 1.32 1 2 C2.94893777 2.76351288 2.94893777 2.76351288 5.25 3.375 C13.02038586 5.90375116 15.8639951 9.90976853 19.609375 16.984375 C20.9526055 19.89722316 21.89059082 22.74505674 22.8125 25.8125 C24.93912521 31.94833667 28.38734347 34.09984313 34 37 C35.89667621 38.01926644 37.79249629 39.04012743 39.6875 40.0625 C41.06421875 40.79919922 41.06421875 40.79919922 42.46875 41.55078125 C45.72028581 43.41238586 48.31617709 45.38871285 51 48 C51 48.66 51 49.32 51 50 C51.66 50 52.32 50 53 50 C56.41737677 55.51748276 58.58373055 61.04111122 60.625 67.1875 C61.2189272 68.95264139 61.81519741 70.71699654 62.4140625 72.48046875 C62.6713916 73.25285889 62.9287207 74.02524902 63.19384766 74.82104492 C63.9905425 76.97443725 64.96855698 78.95136625 66 81 C66.58937578 82.96548713 67.12791948 84.9466674 67.625 86.9375 C67.88539063 87.95714844 68.14578125 88.97679687 68.4140625 90.02734375 C69 93 69 93 69 98 C45.57 98 22.14 98 -2 98 C-2 86.75 -2 86.75 0 80.375 C0.37125 79.16585937 0.7425 77.95671875 1.125 76.7109375 C1.41375 75.81632812 1.7025 74.92171875 2 74 C2.66 74 3.32 74 4 74 C3.96519531 73.34515625 3.93039063 72.6903125 3.89453125 72.015625 C3.54734958 60.31064304 7.17807826 49.94194853 11 39 C11.99 39 12.98 39 14 39 C13.91809376 35.83235551 13.80535409 32.66649468 13.6875 29.5 C13.66494141 28.613125 13.64238281 27.72625 13.61914062 26.8125 C13.38034619 20.90776482 12.33630431 16.42935501 10 11 C9.67 10.01 9.34 9.02 9 8 C5.48809191 6.77030122 5.48809191 6.77030122 2 6 C2 5.34 2 4.68 2 4 C1.01 4 0.02 4 -1 4 C-0.67 2.68 -0.34 1.36 0 0 Z " fill="#21487A" transform="translate(123,94)"/>
<path d="M0 0 C0.99 0.33 1.98 0.66 3 1 C3 1.66 3 2.32 3 3 C5.31 3.33 7.62 3.66 10 4 C10 2.68 10 1.36 10 0 C16.29538601 0.24448101 20.2532021 0.5244477 25 5 C29.21580097 7.16487077 33.34031621 7.52613385 38 8 C38 6.35 38 4.7 38 3 C41.37705625 3.53725895 44.696686 4.11064623 48 5 C48 3.68 48 2.36 48 1 C51.94120709 1.56302958 54.7508723 2.6791945 58 5 C58 5.66 58 6.32 58 7 C57.34 7.33 56.68 7.66 56 8 C56.804375 8.391875 57.60875 8.78375 58.4375 9.1875 C61 11 61 11 61.8125 13.6875 C61.874375 14.450625 61.93625 15.21375 62 16 C62.66 15.67 63.32 15.34 64 15 C64.99 16.98 64.99 16.98 66 19 C67.32 16.69 68.64 14.38 70 12 C73 13 73 13 74 15 C74.79326526 21.73142236 74.40915283 26.73380127 70.43359375 32.30859375 C69 34 69 34 66.375 36.4375 C63.17308003 39.89220313 62.20192975 43.51474994 61 48 C59.68461673 43.84228506 60.65566932 41.1120703 62 37 C60.7315625 37.928125 60.7315625 37.928125 59.4375 38.875 C56.08627655 41.13047736 52.91143146 42.06125645 49 43 C49 41.68 49 40.36 49 39 C47.9275 39.04125 46.855 39.0825 45.75 39.125 C42 39 42 39 40.2734375 38.00390625 C36.88429976 36.50732824 33.50977881 36.75072827 29.875 36.8125 C29.14667969 36.81314453 28.41835937 36.81378906 27.66796875 36.81445312 C23.70411358 36.77859343 23.70411358 36.77859343 20 38 C18.45976004 38.06950541 16.91665012 38.08452357 15.375 38.0625 C14.14910156 38.04896484 14.14910156 38.04896484 12.8984375 38.03515625 C12.27195312 38.02355469 11.64546875 38.01195312 11 38 C11 39.32 11 40.64 11 42 C5.76124715 41.25160674 2.3371124 38.89140827 -2 36 C-2.33 37.32 -2.66 38.64 -3 40 C-3 39.01 -3 38.02 -3 37 C-3.60457031 36.7421875 -4.20914063 36.484375 -4.83203125 36.21875 C-8.56962849 34.11761425 -10.29385335 30.8515624 -12 27 C-12.77056406 23.65594958 -13.23766805 20.43095166 -13 17 C-12.01 15.515 -12.01 15.515 -11 14 C-9.1875 14.125 -9.1875 14.125 -7 15 C-5.25 18.0625 -5.25 18.0625 -4 21 C-3.67 18.36 -3.34 15.72 -3 13 C-3.66 13 -4.32 13 -5 13 C-5 11.68 -5 10.36 -5 9 C-3.68 8.67 -2.36 8.34 -1 8 C-0.67 5.36 -0.34 2.72 0 0 Z " fill="#38230F" transform="translate(64,46)"/>
<path d="M0 0 C0.928125 1.175625 0.928125 1.175625 1.875 2.375 C3.89858661 4.96837647 3.89858661 4.96837647 6 7 C6.24878402 13.37360957 4.62611304 19.26563598 2 25 C1.38125 26.37478516 1.38125 26.37478516 0.75 27.77734375 C-4.61038403 39.09532851 -11.24276807 48.11742143 -21 56 C-25.31407352 54.4477399 -27.57084178 51.14617937 -30.25 47.625 C-30.73090088 47.00157715 -31.21180176 46.3781543 -31.70727539 45.73583984 C-50.69784708 20.86340032 -50.69784708 20.86340032 -50 9 C-48.375 8.3125 -48.375 8.3125 -46 8 C-43.07559539 9.19363453 -40.71235741 10.16959479 -38.6328125 12.59375 C-35.28086597 15.4805939 -30.18209709 14.19310475 -26 14 C-25.16726562 14.02707031 -24.33453125 14.05414063 -23.4765625 14.08203125 C-14.36215337 14.00829008 -7.89503662 7.79798421 -1.6484375 1.70703125 C-0.83246094 0.86205078 -0.83246094 0.86205078 0 0 Z " fill="#C07C5E" transform="translate(118,119)"/>
<path d="M0 0 C4.13782924 4.27575688 5.05944297 8.31953056 6 14 C3.36 14.66 0.72 15.32 -2 16 C-2 16.66 -2 17.32 -2 18 C-2.66 18 -3.32 18 -4 18 C-4.12375 18.515625 -4.2475 19.03125 -4.375 19.5625 C-5 22 -5 22 -6.14453125 24.98828125 C-7.56661679 30.03550858 -6.41010326 34.59983347 -5.3125 39.625 C-5.09553467 40.65246338 -4.87856934 41.67992676 -4.6550293 42.73852539 C-2.04844783 54.1328644 2.22718445 64.80358209 6.57421875 75.62109375 C10.82690144 86.53731652 11 93.43700526 11 106 C-1.54 106 -14.08 106 -27 106 C-27 99 -27 99 -24.625 96.25 C-23.75875 95.5075 -22.8925 94.765 -22 94 C-21.34 93.01 -20.68 92.02 -20 91 C-19.34 91 -18.68 91 -18 91 C-18.99 95.95 -18.99 95.95 -20 101 C-9.8786045 97.41890222 -9.8786045 97.41890222 -2.36328125 90.3359375 C-1.78227935 87.03584668 -1.86075964 85.16206478 -3 82 C-5.93237108 78.40216463 -9.29430245 75.7620106 -13 73 C-15.87532162 70.56509963 -15.96578071 70.18976151 -16.6875 66.1875 C-18.0479437 48.95521308 -18.0479437 48.95521308 -15 43 C-14.6698227 39.72748317 -14.55945913 36.47784598 -14.44140625 33.19140625 C-13.95334295 29.6626654 -13.02089495 27.90035849 -11 25 C-10.42121094 24.11699219 -9.84242187 23.23398438 -9.24609375 22.32421875 C-8.64925781 21.45410156 -8.05242188 20.58398438 -7.4375 19.6875 C-6.83808594 18.80449219 -6.23867188 17.92148438 -5.62109375 17.01171875 C-4.81865234 16.01591797 -4.81865234 16.01591797 -4 15 C-3.34 15 -2.68 15 -2 15 C-2 14.34 -2 13.68 -2 13 C-0.02 12.67 1.96 12.34 4 12 C3.71125 11.38511719 3.4225 10.77023438 3.125 10.13671875 C2.75375 9.32847656 2.3825 8.52023438 2 7.6875 C1.443125 6.48673828 1.443125 6.48673828 0.875 5.26171875 C0 3 0 3 0 0 Z " fill="#0F2758" transform="translate(62,86)"/>
<path d="M0 0 C1.8125 0.125 1.8125 0.125 4 1 C5.75 4.0625 5.75 4.0625 7 7 C7.66 5.68 8.32 4.36 9 3 C9.33773437 3.63808594 9.67546875 4.27617188 10.0234375 4.93359375 C10.46945313 5.75988281 10.91546875 6.58617188 11.375 7.4375 C11.81585938 8.26121094 12.25671875 9.08492187 12.7109375 9.93359375 C13.83418559 12.13466578 13.83418559 12.13466578 16 13 C18.71760108 13.07181821 21.40859388 13.09299506 24.125 13.0625 C25.25615234 13.05573242 25.25615234 13.05573242 26.41015625 13.04882812 C28.27347127 13.03703499 30.13674555 13.01909942 32 13 C32.29261719 12.25234375 32.58523437 11.5046875 32.88671875 10.734375 C34.34217386 7.15957297 35.83527188 4.21616749 38 1 C40.75 0.0625 40.75 0.0625 43 0 C45.46849554 2.90929831 47.01744691 5.04901752 48.3125 8.6875 C49.1847475 10.60529171 49.1847475 10.60529171 51 12 C54.90274029 12.94861279 58.669319 13.39976801 62.6640625 13.7109375 C66 14 66 14 68 15 C67.71125 15.680625 67.4225 16.36125 67.125 17.0625 C65.89513221 20.07977379 65.89513221 20.07977379 65.125 23.6875 C64 27 64 27 61.875 28.4375 C61.25625 28.623125 60.6375 28.80875 60 29 C60 27.68 60 26.36 60 25 C58.9275 25.04125 57.855 25.0825 56.75 25.125 C53 25 53 25 51.2734375 24.00390625 C47.88429976 22.50732824 44.50977881 22.75072827 40.875 22.8125 C40.14667969 22.81314453 39.41835937 22.81378906 38.66796875 22.81445312 C34.70411358 22.77859343 34.70411358 22.77859343 31 24 C29.45976004 24.06950541 27.91665012 24.08452357 26.375 24.0625 C25.14910156 24.04896484 25.14910156 24.04896484 23.8984375 24.03515625 C23.27195312 24.02355469 22.64546875 24.01195313 22 24 C22 25.32 22 26.64 22 28 C16.76124715 27.25160674 13.3371124 24.89140827 9 22 C8.67 23.32 8.34 24.64 8 26 C8 25.01 8 24.02 8 23 C7.39542969 22.7421875 6.79085937 22.484375 6.16796875 22.21875 C2.43037151 20.11761425 0.70614665 16.8515624 -1 13 C-1.77056406 9.65594958 -2.23766805 6.43095166 -2 3 C-1.34 2.01 -0.68 1.02 0 0 Z " fill="#B07159" transform="translate(53,60)"/>
<path d="M0 0 C0 0.66 0 1.32 0 2 C-0.66 2 -1.32 2 -2 2 C-2.26683594 2.57621094 -2.53367188 3.15242188 -2.80859375 3.74609375 C-4.42724929 6.80827161 -6.52676294 9.38005744 -8.66015625 12.09765625 C-11.16354611 15.65203195 -11.16724431 18.96808085 -11.375 23.1875 C-11.70630762 27.87239686 -12.2957537 31.66642429 -14.17578125 35.94921875 C-15.58100009 39.44561633 -16.36387155 43.12166452 -17.25390625 46.77734375 C-18 49 -18 49 -20 50 C-20.33 46.37 -20.66 42.74 -21 39 C-22.6321378 40.24066563 -24.25547321 41.49291688 -25.875 42.75 C-26.77992187 43.44609375 -27.68484375 44.1421875 -28.6171875 44.859375 C-30.86793904 46.88136163 -31.97423717 48.1938902 -33 51 C-33 51.66 -33 52.32 -33 53 C-34.32 52.67 -35.64 52.34 -37 52 C-37.19335938 52.96421875 -37.38671875 53.9284375 -37.5859375 54.921875 C-37.84632812 56.18515625 -38.10671875 57.4484375 -38.375 58.75 C-38.75785156 60.62945312 -38.75785156 60.62945312 -39.1484375 62.546875 C-39.853182 65.40464626 -40.63450118 67.44662823 -42 70 C-42.37791711 71.32138849 -42.7102791 72.65651547 -43 74 C-43.26490234 75.16789062 -43.26490234 75.16789062 -43.53515625 76.359375 C-43.79619141 77.54273438 -43.79619141 77.54273438 -44.0625 78.75 C-44.23910156 79.54921875 -44.41570313 80.3484375 -44.59765625 81.171875 C-44.73042969 81.77515625 -44.86320312 82.3784375 -45 83 C-45.66 83 -46.32 83 -47 83 C-47 86.3 -47 89.6 -47 93 C-51.29 93 -55.58 93 -60 93 C-59.43959642 86.31566814 -58.15179864 80.27968589 -56.1875 73.875 C-55.8152832 72.59302734 -55.8152832 72.59302734 -55.43554688 71.28515625 C-54.26000065 67.39059854 -53.05228013 63.86289644 -50.92578125 60.3828125 C-49.27946152 57.49089995 -48.71355078 56.04724852 -48.140625 52.9375 C-47.0824203 48.18245031 -44.46800399 45.95500141 -40.75 43 C-40.13535889 42.49090088 -39.52071777 41.98180176 -38.88745117 41.45727539 C-33.56138185 37.17139586 -27.90078697 33.80052768 -21.86328125 30.62109375 C-18.50553516 28.76771493 -18.50553516 28.76771493 -16 26 C-15.86329542 23.85006523 -15.86329542 23.85006523 -16.1875 21.5 C-16.36962322 14.95314962 -13.93430717 10.14104845 -10 5 C-7.06791808 2.49144103 -3.98099917 0 0 0 Z " fill="#235CB3" transform="translate(60,99)"/>
<path d="M0 0 C0.33 0 0.66 0 1 0 C1.33 6.6 1.66 13.2 2 20 C1.34 19.34 0.68 18.68 0 18 C-0.56847656 18.51949219 -1.13695312 19.03898437 -1.72265625 19.57421875 C-4.12515674 21.74408981 -6.5554192 23.87769513 -9 26 C-9.59554687 26.53109375 -10.19109375 27.0621875 -10.8046875 27.609375 C-15.58084136 31.49428484 -19.9711695 31.86375524 -26 32 C-27.58554688 32.0928125 -27.58554688 32.0928125 -29.203125 32.1875 C-35.42132401 32.42781687 -35.42132401 32.42781687 -38 32 C-39.69140625 30.05859375 -39.69140625 30.05859375 -41 28 C-43.93840447 26.53079777 -45.69747512 26 -49 26 C-49.66 27.32 -50.32 28.64 -51 30 C-51 28.35 -51 26.7 -51 25 C-50.01 24.67 -49.02 24.34 -48 24 C-47.67 16.41 -47.34 8.82 -47 1 C-44.69 2.98 -42.38 4.96 -40 7 C-33.92311467 12.15614513 -27.25585742 12.50510941 -19.546875 12.375 C-12.33931472 11.6129672 -7.1314381 8.64711595 -2.4375 3.1875 C-1.98246094 2.58292969 -1.52742188 1.97835937 -1.05859375 1.35546875 C-0.53458984 0.68451172 -0.53458984 0.68451172 0 0 Z " fill="#5D3339" transform="translate(118,102)"/>
<path d="M0 0 C4.67461851 -0.32613618 7.16674383 0.29417212 11 3 C10.57874861 14.79503905 5.41142222 28.71339867 -2 38 C-2.66 38 -3.32 38 -4 38 C-4.27585938 38.59167969 -4.55171875 39.18335938 -4.8359375 39.79296875 C-7.96570501 45.72692393 -13.1055099 50.1482411 -18.16796875 54.421875 C-20.020426 55.94256185 -20.020426 55.94256185 -21.48828125 57.703125 C-23 59 -23 59 -27 59 C-27 58.34 -27 57.68 -27 57 C-27.66 57 -28.32 57 -29 57 C-32 53.53846154 -32 53.53846154 -32 51 C-32.59296875 50.7525 -33.1859375 50.505 -33.796875 50.25 C-36.3343262 48.81031137 -37.54044102 47.34848507 -39.25 45 C-39.77078125 44.29875 -40.2915625 43.5975 -40.828125 42.875 C-42 41 -42 41 -42 39 C-43.485 38.505 -43.485 38.505 -45 38 C-50.13943087 31.25527474 -54.04933186 23.48166824 -58 16 C-57.83242188 16.55429688 -57.66484375 17.10859375 -57.4921875 17.6796875 C-57.28851563 18.40414062 -57.08484375 19.12859375 -56.875 19.875 C-56.66617188 20.59429687 -56.45734375 21.31359375 -56.2421875 22.0546875 C-56.16226563 22.69664062 -56.08234375 23.33859375 -56 24 C-56.66 24.66 -57.32 25.32 -58 26 C-58.82101314 23.8156809 -59.63142482 21.62737564 -60.4375 19.4375 C-60.88996094 18.21933594 -61.34242187 17.00117188 -61.80859375 15.74609375 C-62.97885142 12.06649667 -63.57261353 8.81700334 -64 5 C-59.375 2 -59.375 2 -56 2 C-51.12842708 11.39655172 -51.12842708 11.39655172 -49.5625 16 C-44.94685436 28.73106655 -35.02464227 41.02539539 -26 51 C-12.29552162 44.69593995 -5.01763833 29.53922731 0.109375 16.08984375 C1.51509219 11.69366215 2.56720059 7.65104484 2 3 C1.01 1.515 1.01 1.515 0 0 Z " fill="#A51B17" transform="translate(121,123)"/>
<path d="M0 0 C0.33 0 0.66 0 1 0 C2.55834384 7.16499396 1.48046674 11.6191443 -2 18 C-2.33 18.66 -2.66 19.32 -3 20 C-3.66 20 -4.32 20 -5 20 C-4.67 21.65 -4.34 23.3 -4 25 C-3.75765625 24.48050781 -3.5153125 23.96101563 -3.265625 23.42578125 C-1.2406009 19.21217341 0.7698116 15.4455343 4 12 C4.66 12 5.32 12 6 12 C6.33 11.01 6.66 10.02 7 9 C7.66 9 8.32 9 9 9 C9.0270043 10.45823212 9.04639787 11.91660675 9.0625 13.375 C9.07410156 14.18710938 9.08570313 14.99921875 9.09765625 15.8359375 C9 18 9 18 8 20 C8.33 20.99 8.66 21.98 9 23 C8.34 23 7.68 23 7 23 C7.144375 24.175625 7.28875 25.35125 7.4375 26.5625 C7.46327522 29.45447971 7.20848141 30.70725051 5.51171875 33.08984375 C3.74411635 34.87940394 2.03791269 36.5245881 0 38 C-0.66 38 -1.32 38 -2 38 C-2.12375 38.7425 -2.2475 39.485 -2.375 40.25 C-3 43 -3 43 -4 44.875 C-5.387293 47.82299761 -5.54875543 50.78488245 -6 54 C-7.0625 56.9375 -7.0625 56.9375 -8 59 C-9.65 59 -11.3 59 -13 59 C-13.71240023 50.41161947 -11.61177122 43.0918269 -9 35 C-8.34 35 -7.68 35 -7 35 C-7.03480469 34.34515625 -7.06960937 33.6903125 -7.10546875 33.015625 C-7.45265042 21.31064304 -3.82192174 10.94194853 0 0 Z " fill="#102C57" transform="translate(134,133)"/>
<path d="M0 0 C1.83498047 -0.03867188 1.83498047 -0.03867188 3.70703125 -0.078125 C7.41898182 0.2718232 9.1707967 1.15119041 12.1875 3.25 C14.37880534 3.94579454 14.37880534 3.94579454 16.1875 4.25 C16.78025658 7.55250095 16.50384933 9.67944138 14.875 12.6171875 C10.49736984 18.73414392 10.49736984 18.73414392 7.1640625 20.046875 C5.25 20.3125 5.25 20.3125 2.1875 20.25 C2.1875 17.61 2.1875 14.97 2.1875 12.25 C0.8675 11.92 -0.4525 11.59 -1.8125 11.25 C-1.626875 12.549375 -1.44125 13.84875 -1.25 15.1875 C-0.93359375 17.40234375 -0.93359375 17.40234375 -0.8125 19.25 C-1.8125 20.25 -1.8125 20.25 -4.07421875 20.6328125 C-8.03440452 20.0791774 -9.15830067 18.19303399 -11.625 15.125 C-12.81029297 13.69800781 -12.81029297 13.69800781 -14.01953125 12.2421875 C-16.02234779 8.8997965 -16.19266944 7.07439106 -15.8125 3.25 C-14.69875 2.940625 -13.585 2.63125 -12.4375 2.3125 C-4.75149221 0.05970461 -4.75149221 0.05970461 0 0 Z " fill="#994F3D" transform="translate(93.8125,86.75)"/>
<path d="M0 0 C0.66 0 1.32 0 2 0 C2.33 1.32 2.66 2.64 3 4 C3.8353125 4.04253906 3.8353125 4.04253906 4.6875 4.0859375 C10.44471678 4.8055896 12.94845824 6.54764479 16.5625 11.125 C17.73131718 12.73354762 18.88517016 14.35357555 20 16 C20 14.35 20 12.7 20 11 C20.99 11 21.98 11 23 11 C23 11.66 23 12.32 23 13 C23.66 13 24.32 13 25 13 C25.33 12.34 25.66 11.68 26 11 C26.37511719 11.47050781 26.75023438 11.94101562 27.13671875 12.42578125 C30.18984102 16.14028517 32.82888008 18.54640005 37 21 C37 21.99 37 22.98 37 24 C32.45230212 23.46497672 29.73821848 21.54517003 26 19 C23.77397385 18.23060319 23.77397385 18.23060319 22 18 C22 19.32 22 20.64 22 22 C18.62294375 21.46274105 15.303314 20.88935377 12 20 C12 21.65 12 23.3 12 25 C4.25 25.125 4.25 25.125 2 24 C1.18359375 21.78515625 1.18359375 21.78515625 0.4375 19.0625 C-0.549513 15.44202679 -0.549513 15.44202679 -2 12 C-2.99 12 -3.98 12 -5 12 C-5.3669579 5.51707705 -5.3669579 5.51707705 -3.625 3.0625 C-2 2 -2 2 0 2 C0 1.34 0 0.68 0 0 Z " fill="#080605" transform="translate(90,29)"/>
<path d="M0 0 C0.33 0.66 0.66 1.32 1 2 C2.94893777 2.76351288 2.94893777 2.76351288 5.25 3.375 C13.02038586 5.90375116 15.8639951 9.90976853 19.609375 16.984375 C20.9526055 19.89722316 21.89059082 22.74505674 22.8125 25.8125 C25.1593542 32.74413689 30.06308317 35.01131769 36.28125 38.15234375 C36.8484375 38.43207031 37.415625 38.71179688 38 39 C37.01 39.495 37.01 39.495 36 40 C33.1796875 38.78515625 33.1796875 38.78515625 29.875 37.0625 C28.77929688 36.49660156 27.68359375 35.93070313 26.5546875 35.34765625 C25.71164063 34.90292969 24.86859375 34.45820313 24 34 C22.33019519 36.93885646 21.77463079 39.1390623 21.625 42.5 C21.32477169 45.81342881 21.13831879 46.81706224 19.0625 49.5625 C17 51 17 51 15 51 C14.7525 51.515625 14.505 52.03125 14.25 52.5625 C9.31818182 62.17954545 9.31818182 62.17954545 6 65 C6 63.02 6 61.04 6 59 C6.66 59 7.32 59 8 59 C8.48108275 57.58398286 8.95978141 56.16715563 9.4375 54.75 C9.70433594 53.96109375 9.97117188 53.1721875 10.24609375 52.359375 C11.72565852 47.72902723 12.09430374 43.90379467 12 39 C12.66 39 13.32 39 14 39 C13.91809376 35.83235551 13.80535409 32.66649468 13.6875 29.5 C13.66494141 28.613125 13.64238281 27.72625 13.61914062 26.8125 C13.38034619 20.90776482 12.33630431 16.42935501 10 11 C9.67 10.01 9.34 9.02 9 8 C5.48809191 6.77030122 5.48809191 6.77030122 2 6 C2 5.34 2 4.68 2 4 C1.01 4 0.02 4 -1 4 C-0.67 2.68 -0.34 1.36 0 0 Z " fill="#3F659E" transform="translate(123,94)"/>
<path d="M0 0 C0.33 0.66 0.66 1.32 1 2 C1.99 2 2.98 2 4 2 C4 2.66 4 3.32 4 4 C5.60875 4.2784375 5.60875 4.2784375 7.25 4.5625 C10.45172192 5.46338937 11.71213805 6.49886471 13.375 9.375 C15.33798167 13.75395912 16.12827278 16.98944687 16.09765625 21.765625 C16.09443359 22.65507813 16.09121094 23.54453125 16.08789062 24.4609375 C16.07951172 25.38132812 16.07113281 26.30171875 16.0625 27.25 C16.05798828 28.18585938 16.05347656 29.12171875 16.04882812 30.0859375 C16.03706918 32.39069041 16.02063426 34.69531227 16 37 C15.34 37 14.68 37 14 37 C13.34 34.36 12.68 31.72 12 29 C7.67539184 28.26165227 3.3437906 27.61463862 -1 27 C-1.42419188 23.44028204 -1.80930551 19.87737465 -2.1875 16.3125 C-2.30802734 15.30509766 -2.42855469 14.29769531 -2.55273438 13.25976562 C-3.32435657 5.71778097 -3.32435657 5.71778097 -1.55078125 1.79296875 C-1.03902344 1.20128906 -0.52726562 0.60960938 0 0 Z " fill="#0A1534" transform="translate(121,96)"/>
<path d="M0 0 C2.37295119 2.20246732 3.88206519 3.95387034 4.25244141 7.23925781 C4.20476161 9.88369237 4.0374577 12.48978126 3.8125 15.125 C3.75513672 16.03121094 3.69777344 16.93742187 3.63867188 17.87109375 C3.39067018 21.47111829 3.146167 24.561499 2 28 C-0.0625 29.6875 -0.0625 29.6875 -2 31 C-2.33 29.68 -2.66 28.36 -3 27 C-5.64 27.99 -8.28 28.98 -11 30 C-11.55983827 27.60714289 -12.09808849 25.21262659 -12.625 22.8125 C-12.78484375 22.13896484 -12.9446875 21.46542969 -13.109375 20.77148438 C-14.0304371 16.48017233 -14.08234478 13.88329162 -12 10 C-11.62875 9.236875 -11.2575 8.47375 -10.875 7.6875 C-10.58625 7.130625 -10.2975 6.57375 -10 6 C-9.34 6 -8.68 6 -8 6 C-8 5.34 -8 4.68 -8 4 C-4.91190305 2.23537317 -3.76687864 2 0 2 C0 1.34 0 0.68 0 0 Z " fill="#041032" transform="translate(68,98)"/>
<path d="M0 0 C2.65221855 1.04666096 3.27022341 2.22473219 4.6640625 4.6796875 C5.06882812 5.37835938 5.47359375 6.07703125 5.890625 6.796875 C6.26960938 7.45945312 6.64859375 8.12203125 7.0390625 8.8046875 C8.77168076 12.16660277 8.77168076 12.16660277 12.4453125 12.5 C13.80840667 12.65676911 15.17317501 12.7994814 16.5390625 12.9296875 C23.84606963 13.70819106 23.84606963 13.70819106 26.0390625 14.8046875 C25.6059375 15.825625 25.6059375 15.825625 25.1640625 16.8671875 C23.93419471 19.88446129 23.93419471 19.88446129 23.1640625 23.4921875 C22.0390625 26.8046875 22.0390625 26.8046875 19.9140625 28.2421875 C19.2953125 28.4278125 18.6765625 28.6134375 18.0390625 28.8046875 C18.0390625 27.4846875 18.0390625 26.1646875 18.0390625 24.8046875 C15.7290625 24.8046875 13.4190625 24.8046875 11.0390625 24.8046875 C10.0390625 21.8046875 10.0390625 21.8046875 10.0390625 15.8046875 C3.1090625 15.8046875 -3.8209375 15.8046875 -10.9609375 15.8046875 C-10.9609375 11.90417364 -9.56032825 10.02406367 -7.5859375 6.6796875 C-6.64621094 5.06707031 -6.64621094 5.06707031 -5.6875 3.421875 C-3.21859848 -0.32057754 -3.21859848 -0.32057754 0 0 Z " fill="#B8775A" transform="translate(94.9609375,60.1953125)"/>
<path d="M0 0 C0.33 0 0.66 0 1 0 C1.03963867 0.62567871 1.07927734 1.25135742 1.12011719 1.89599609 C1.31037167 4.72406072 1.52980125 7.54911601 1.75 10.375 C1.811875 11.35984375 1.87375 12.3446875 1.9375 13.359375 C2.01484375 14.30039063 2.0921875 15.24140625 2.171875 16.2109375 C2.2347168 17.08024902 2.29755859 17.94956055 2.36230469 18.84521484 C2.78951976 21.16291378 2.78951976 21.16291378 4.91796875 22.20019531 C5.94857422 22.59609863 5.94857422 22.59609863 7 23 C8.45356062 24.07690805 9.8703732 25.20487208 11.25 26.375 C11.95640625 26.96023437 12.6628125 27.54546875 13.390625 28.1484375 C15 30 15 30 15 34 C13.98679687 34.12117188 12.97359375 34.24234375 11.9296875 34.3671875 C10.5780849 34.53613783 9.22652458 34.70542669 7.875 34.875 C7.20984375 34.95363281 6.5446875 35.03226563 5.859375 35.11328125 C-2.50149247 36.12702839 -2.50149247 36.12702839 -9 41 C-11.20821482 30.36041949 -7.26084888 21.19702358 -2 12 C-1.67 11.67 -1.34 11.34 -1 11 C-0.76636119 9.15108054 -0.58696365 7.29511969 -0.4375 5.4375 C-0.35371094 4.42558594 -0.26992188 3.41367188 -0.18359375 2.37109375 C-0.12300781 1.58863281 -0.06242187 0.80617187 0 0 Z " fill="#1A3F6E" transform="translate(44,137)"/>
<path d="M0 0 C4.48686327 3.36514745 4.48686327 3.36514745 5.1875 7.125 C5.58176572 10.76408191 5.58176572 10.76408191 7 12 C7.38606152 17.01879978 6.97663853 19.90712202 4 24 C4.70125 24.12375 5.4025 24.2475 6.125 24.375 C9 25 9 25 11.875 26.0625 C18.66992733 28.1009782 24.70008888 26.96532228 31 24 C37.62579042 19.66827144 42.63760009 13.10366177 46 6 C46.66 6 47.32 6 48 6 C48.495 12.435 48.495 12.435 49 19 C48.34 18.34 47.68 17.68 47 17 C46.43152344 17.51949219 45.86304688 18.03898437 45.27734375 18.57421875 C42.87484326 20.74408981 40.4445808 22.87769513 38 25 C37.40445313 25.53109375 36.80890625 26.0621875 36.1953125 26.609375 C31.41915864 30.49428484 27.0288305 30.86375524 21 31 C19.41445312 31.0928125 19.41445312 31.0928125 17.796875 31.1875 C11.57867599 31.42781687 11.57867599 31.42781687 9 31 C7.30859375 29.05859375 7.30859375 29.05859375 6 27 C3.06159553 25.53079777 1.30252488 25 -2 25 C-2.66 26.32 -3.32 27.64 -4 29 C-4 27.35 -4 25.7 -4 24 C-3.01 23.67 -2.02 23.34 -1 23 C-0.67 15.41 -0.34 7.82 0 0 Z " fill="#7A4545" transform="translate(71,103)"/>
<path d="M0 0 C3 1 3 1 4 3 C4.79326526 9.73142236 4.40915283 14.73380127 0.43359375 20.30859375 C-1 22 -1 22 -3.625 24.4375 C-6.82691997 27.89220313 -7.79807025 31.51474994 -9 36 C-10.31538327 31.84228506 -9.34433068 29.1120703 -8 25 C-8.928125 25.66 -9.85625 26.32 -10.8125 27 C-14 29 -14 29 -17 29 C-16.33501617 24.61110675 -14.81242323 21.0188515 -13 17 C-17.29 16.67 -21.58 16.34 -26 16 C-26 15.67 -26 15.34 -26 15 C-24.69675781 15.08314453 -24.69675781 15.08314453 -23.3671875 15.16796875 C-19.63568141 15.18883847 -16.59331659 15.04005842 -13 14 C-10.08850839 10.66962594 -8.49367593 7.1400059 -7 3 C-6.01 4.32 -5.02 5.64 -4 7 C-2.68 4.69 -1.36 2.38 0 0 Z " fill="#945D4A" transform="translate(134,58)"/>
<path d="M0 0 C0.90492187 0.02320313 1.80984375 0.04640625 2.7421875 0.0703125 C4.10730469 0.09738281 4.10730469 0.09738281 5.5 0.125 C6.19867188 0.14820313 6.89734375 0.17140625 7.6171875 0.1953125 C7.2871875 2.1753125 6.9571875 4.1553125 6.6171875 6.1953125 C9.08985515 5.85086369 9.08985515 5.85086369 11.6171875 5.1953125 C11.9471875 4.5353125 12.2771875 3.8753125 12.6171875 3.1953125 C14.9271875 3.8553125 17.2371875 4.5153125 19.6171875 5.1953125 C18.99062493 9.45593794 17.7495539 14.0629461 14.6171875 17.1953125 C2.63304418 18.71685949 2.63304418 18.71685949 -1.421875 15.65625 C-4.2616272 11.35510486 -5.10443787 7.34977941 -4.3828125 2.1953125 C-2.3828125 0.1953125 -2.3828125 0.1953125 0 0 Z " fill="#B8785A" transform="translate(68.3828125,54.8046875)"/>
<path d="M0 0 C1.41623216 -0.05447047 2.83308191 -0.09300508 4.25 -0.125 C5.03890625 -0.14820313 5.8278125 -0.17140625 6.640625 -0.1953125 C9.20731941 0.0171622 10.7916067 0.71345895 13 2 C13.29209024 7.64707788 13.0637112 11.05092807 10 16 C7.2674014 18.7325986 5.5043022 18.46074351 1.6875 18.625 C-4.33309514 18.5584005 -4.33309514 18.5584005 -6.96875 16.3515625 C-9.33949469 12.64382807 -10 10.47709455 -10 6 C-8.02 5.34 -6.04 4.68 -4 4 C-4 4.66 -4 5.32 -4 6 C-1.03 6.495 -1.03 6.495 2 7 C2.77242269 5.16299211 2.77242269 5.16299211 3 3 C1.56507733 1.35658567 1.56507733 1.35658567 0 0 Z " fill="#AB7159" transform="translate(111,54)"/>
<path d="M0 0 C4.13782924 4.27575688 5.05944297 8.31953056 6 14 C3.36 14.66 0.72 15.32 -2 16 C-2 16.66 -2 17.32 -2 18 C-2.66 18 -3.32 18 -4 18 C-4.12375 18.515625 -4.2475 19.03125 -4.375 19.5625 C-5 22 -5 22 -6.1875 25.125 C-7.09311569 29.44409023 -6.58785664 31.95125095 -5.58203125 36.15625 C-4.51425859 41.37328691 -4.3161068 46.69273318 -4 52 C-6.375 51.6875 -6.375 51.6875 -9 51 C-9.66 50.01 -10.32 49.02 -11 48 C-11.33 48.66 -11.66 49.32 -12 50 C-12.66 50 -13.32 50 -14 50 C-14 49.34 -14 48.68 -14 48 C-15.485 48.495 -15.485 48.495 -17 49 C-16.67902344 48.14535156 -16.35804687 47.29070312 -16.02734375 46.41015625 C-14.6856976 41.95670724 -14.61024989 37.74523099 -14.44140625 33.12109375 C-13.94896144 29.63911673 -12.99227523 27.86850738 -11 25 C-10.42121094 24.11699219 -9.84242187 23.23398438 -9.24609375 22.32421875 C-8.64925781 21.45410156 -8.05242188 20.58398438 -7.4375 19.6875 C-6.83808594 18.80449219 -6.23867188 17.92148438 -5.62109375 17.01171875 C-5.08613281 16.34785156 -4.55117188 15.68398437 -4 15 C-3.34 15 -2.68 15 -2 15 C-2 14.34 -2 13.68 -2 13 C-0.02 12.67 1.96 12.34 4 12 C3.71125 11.38511719 3.4225 10.77023438 3.125 10.13671875 C2.75375 9.32847656 2.3825 8.52023438 2 7.6875 C1.443125 6.48673828 1.443125 6.48673828 0.875 5.26171875 C0 3 0 3 0 0 Z " fill="#13325E" transform="translate(62,86)"/>
<path d="M0 0 C0.66 0.33 1.32 0.66 2 1 C-0.31 3.64 -2.62 6.28 -5 9 C-4.01 9.99 -3.02 10.98 -2 12 C-4.31 12 -6.62 12 -9 12 C-8.79761719 13.00933594 -8.59523438 14.01867187 -8.38671875 15.05859375 C-7.9680352 19.32578265 -8.53802032 21.99587402 -9.8125 26.0625 C-10.16957031 27.22910156 -10.52664062 28.39570312 -10.89453125 29.59765625 C-11.91455982 32.73703748 -12.94758666 35.87133228 -14 39 C-14.66 39 -15.32 39 -16 39 C-15.34 43.62 -14.68 48.24 -14 53 C-19.50974209 45.65367722 -19.63950726 38.91184315 -19 30 C-17.43582345 19.30672034 -11.87326195 11.23488936 -4 4 C-3.236875 3.236875 -2.47375 2.47375 -1.6875 1.6875 C-1.130625 1.130625 -0.57375 0.57375 0 0 Z " fill="#21282C" transform="translate(68,6)"/>
<path d="M0 0 C1.32 0.66 2.64 1.32 4 2 C3.01 2.495 3.01 2.495 2 3 C1.41756761 5.25110118 0.93291575 7.52792827 0.5 9.8125 C-0.28037094 13.90520629 -1.02938043 17.33687248 -3 21 C-3.37791711 22.32138849 -3.7102791 23.65651547 -4 25 C-4.17660156 25.77859375 -4.35320313 26.5571875 -4.53515625 27.359375 C-4.70917969 28.14828125 -4.88320313 28.9371875 -5.0625 29.75 C-5.23910156 30.54921875 -5.41570313 31.3484375 -5.59765625 32.171875 C-5.73042969 32.77515625 -5.86320313 33.3784375 -6 34 C-6.66 34 -7.32 34 -8 34 C-8 37.3 -8 40.6 -8 44 C-9.98 44 -11.96 44 -14 44 C-14.31881282 38.70602916 -13.17589923 34.42564499 -11.625 29.4375 C-11.40328125 28.69564453 -11.1815625 27.95378906 -10.953125 27.18945312 C-9.80008768 23.38103867 -8.55439633 19.6680848 -7 16 C-6.34 16 -5.68 16 -5 16 C-4.87625 15.38125 -4.7525 14.7625 -4.625 14.125 C-4 12 -4 12 -2 10 C-2 8.68 -2 7.36 -2 6 C-2 2 -2 2 0 0 Z " fill="#2259AE" transform="translate(21,148)"/>
<path d="M0 0 C3.14370912 2.57212564 3.95199946 5.12462778 5 9 C5.20978675 11.77626879 5.32526864 14.41670532 5.3125 17.1875 C5.32861328 17.89841797 5.34472656 18.60933594 5.36132812 19.34179688 C5.36618584 24.50554568 5.36618584 24.50554568 3.6171875 26.8671875 C2.81667969 27.42792969 2.81667969 27.42792969 2 28 C-0.2085766 29.87508162 -0.2085766 29.87508162 -2 32 C-2 33.32 -2 34.64 -2 36 C-3.94330317 39.81959588 -5.6985981 43.19380839 -9 46 C-9 44.02 -9 42.04 -9 40 C-8.34 40 -7.68 40 -7 40 C-6.51891725 38.58398286 -6.04021859 37.16715563 -5.5625 35.75 C-5.29566406 34.96109375 -5.02882812 34.1721875 -4.75390625 33.359375 C-3.27434148 28.72902723 -2.90569626 24.90379467 -3 20 C-2.34 20 -1.68 20 -1 20 C-1.00523682 19.42967041 -1.01047363 18.85934082 -1.01586914 18.27172852 C-1.03658221 15.70199677 -1.0496419 13.13228253 -1.0625 10.5625 C-1.07087891 9.66466797 -1.07925781 8.76683594 -1.08789062 7.84179688 C-1.09111328 6.98779297 -1.09433594 6.13378906 -1.09765625 5.25390625 C-1.10289307 4.46314697 -1.10812988 3.6723877 -1.11352539 2.85766602 C-1 1 -1 1 0 0 Z " fill="#1D4C96" transform="translate(138,113)"/>
<path d="M0 0 C0.33 0 0.66 0 1 0 C2.55834384 7.16499396 1.48046674 11.6191443 -2 18 C-2.33 18.66 -2.66 19.32 -3 20 C-3.66 20 -4.32 20 -5 20 C-4.67 21.65 -4.34 23.3 -4 25 C-3.74605469 24.44570312 -3.49210938 23.89140625 -3.23046875 23.3203125 C-2.88628906 22.59585938 -2.54210937 21.87140625 -2.1875 21.125 C-1.85105469 20.40570313 -1.51460937 19.68640625 -1.16796875 18.9453125 C0 17 0 17 3 15 C2.28247302 18.35108754 1.061328 21.3027903 -0.3125 24.4375 C-2.175904 28.82292493 -3.72132243 33.17828756 -5.0625 37.75 C-6.58275953 42.87087422 -8.3292526 47.37070451 -11 52 C-11.99 52.495 -11.99 52.495 -13 53 C-12.31195504 46.80759538 -10.71951285 40.98044406 -9 35 C-8.34 35 -7.68 35 -7 35 C-7.03480469 34.34515625 -7.06960937 33.6903125 -7.10546875 33.015625 C-7.45265042 21.31064304 -3.82192174 10.94194853 0 0 Z " fill="#172F5D" transform="translate(134,133)"/>
<path d="M0 0 C1.8125 0.125 1.8125 0.125 4 1 C5.75 4.0625 5.75 4.0625 7 7 C7.66 5.68 8.32 4.36 9 3 C10.19825457 6.59476372 10.14608744 9.88549399 10.125 13.625 C10.12886719 14.31851563 10.13273437 15.01203125 10.13671875 15.7265625 C10.12666646 20.87333354 10.12666646 20.87333354 9 22 C8.63837971 23.32594105 8.30271961 24.65938457 8 26 C8 25.01 8 24.02 8 23 C7.39542969 22.7421875 6.79085937 22.484375 6.16796875 22.21875 C2.43037151 20.11761425 0.70614665 16.8515624 -1 13 C-1.77056406 9.65594958 -2.23766805 6.43095166 -2 3 C-1.34 2.01 -0.68 1.02 0 0 Z " fill="#5F3139" transform="translate(53,60)"/>
<path d="M0 0 C0.33 0 0.66 0 1 0 C3.44064587 5.64399358 3.19289099 10.97751478 3 17 C1.68 17.33 0.36 17.66 -1 18 C-1 19.32 -1 20.64 -1 22 C-0.34 22 0.32 22 1 22 C1 24.97 1 27.94 1 31 C-1.56307988 28.43692012 -2.46922502 27.06154996 -4 24 C-4.66 23.67 -5.32 23.34 -6 23 C-6.6328125 20.890625 -6.6328125 20.890625 -7.125 18.25 C-7.29257812 17.38890625 -7.46015625 16.5278125 -7.6328125 15.640625 C-7.9923991 13.05466179 -8.06564041 10.60686191 -8 8 C-7.01 8.99 -6.02 9.98 -5 11 C-4.80664062 10.37351562 -4.61328125 9.74703125 -4.4140625 9.1015625 C-4.02347656 7.87566406 -4.02347656 7.87566406 -3.625 6.625 C-3.36976562 5.81289063 -3.11453125 5.00078125 -2.8515625 4.1640625 C-2 2 -2 2 0 0 Z " fill="#070605" transform="translate(60,37)"/>
<path d="M0 0 C1.79068573 2.6860286 2.66055791 4.6626589 3.625 7.6875 C3.88539062 8.49574219 4.14578125 9.30398437 4.4140625 10.13671875 C4.60742188 10.75160156 4.80078125 11.36648437 5 12 C6.32 12 7.64 12 9 12 C9 15.3 9 18.6 9 22 C4.71 22 0.42 22 -4 22 C-3.7185076 18.89459975 -3.42527526 15.79109128 -3.125 12.6875 C-3.00705078 11.36588867 -3.00705078 11.36588867 -2.88671875 10.01757812 C-2.80292969 9.17001953 -2.71914063 8.32246094 -2.6328125 7.44921875 C-2.55949707 6.66893311 -2.48618164 5.88864746 -2.41064453 5.0847168 C-2 3 -2 3 0 0 Z " fill="#173A67" transform="translate(63,170)"/>
<path d="M0 0 C6.6 0.33 13.2 0.66 20 1 C19.67 1.99 19.34 2.98 19 4 C14.48382401 4.07654536 10.40914783 4.10228696 6 3 C6.71639199 6.28843538 6.71639199 6.28843538 10 7.625 C10.99 8.07875 11.98 8.5325 13 9 C14 10 14 10 14.125 12.5 C14 15 14 15 13 16 C10.7421875 16.38671875 10.7421875 16.38671875 8 16 C5.5078125 13.76953125 5.5078125 13.76953125 3.125 10.8125 C2.32320313 9.84957031 1.52140625 8.88664062 0.6953125 7.89453125 C-1 5 -1 5 0 0 Z " fill="#A96B54" transform="translate(79,91)"/>
<path d="M0 0 C0.66 0 1.32 0 2 0 C3.01866229 1.65532623 4.01810813 3.32260138 5 5 C5.66 5.33 6.32 5.66 7 6 C6.814375 6.969375 6.62875 7.93875 6.4375 8.9375 C5.88042485 12.73644303 6.22304615 16.19724553 6.74609375 19.984375 C7 22 7 22 7 25 C4.0625 24.625 4.0625 24.625 1 24 C-2.1952169 17.60956619 -1.38528196 7.98040266 -1 1 C-0.67 0.67 -0.34 0.34 0 0 Z " fill="#0A266B" transform="translate(46,134)"/>
<path d="M0 0 C0.33 0.66 0.66 1.32 1 2 C1.99 2 2.98 2 4 2 C4 2.66 4 3.32 4 4 C5.60875 4.2784375 5.60875 4.2784375 7.25 4.5625 C10.45172192 5.46338937 11.71213805 6.49886471 13.375 9.375 C15.33798167 13.75395912 16.12827278 16.98944687 16.09765625 21.765625 C16.09443359 22.65507813 16.09121094 23.54453125 16.08789062 24.4609375 C16.07951172 25.38132812 16.07113281 26.30171875 16.0625 27.25 C16.05798828 28.18585938 16.05347656 29.12171875 16.04882812 30.0859375 C16.03706918 32.39069041 16.02063426 34.69531227 16 37 C15.34 37 14.68 37 14 37 C14.01160156 35.89140625 14.02320313 34.7828125 14.03515625 33.640625 C14.04453792 32.17708502 14.05363771 30.71354322 14.0625 29.25 C14.07087891 28.52039063 14.07925781 27.79078125 14.08789062 27.0390625 C14.10391684 23.51329442 13.95292713 20.38965084 13 17 C12.34 17.66 11.68 18.32 11 19 C8.375 18.625 8.375 18.625 6 18 C6 17.34 6 16.68 6 16 C5.34 16 4.68 16 4 16 C3.63076923 11.44615385 3.63076923 11.44615385 5.5 9.1875 C5.995 8.795625 6.49 8.40375 7 8 C5.68 7.34 4.36 6.68 3 6 C3 5.01 3 4.02 3 3 C2.01 3 1.02 3 0 3 C0 2.01 0 1.02 0 0 Z " fill="#0A265E" transform="translate(121,96)"/>
<path d="M0 0 C0.66 0 1.32 0 2 0 C2.75 1.6875 2.75 1.6875 3 4 C0.97651172 7.48039984 -0.21208874 8.77938485 -4.125 9.875 C-7 10 -7 10 -9 9 C-9.268125 9.928125 -9.53625 10.85625 -9.8125 11.8125 C-10.90977245 14.75781025 -11.53357169 16.15017877 -14 18 C-14.66 18 -15.32 18 -16 18 C-16.28875 18.639375 -16.5775 19.27875 -16.875 19.9375 C-18 22 -18 22 -20 23 C-20 22.01 -20 21.02 -20 20 C-21.32 20 -22.64 20 -24 20 C-24 20.66 -24 21.32 -24 22 C-25.98 22.66 -27.96 23.32 -30 24 C-22.59526463 16.1016156 -13.99318408 10.17174499 -4.6875 4.76171875 C-1.79451451 3.11618023 -1.79451451 3.11618023 0 0 Z " fill="#4777BB" transform="translate(44,124)"/>
<path d="M0 0 C-0.60608021 7.39417853 -0.60608021 7.39417853 -2.1328125 9.7421875 C-4.92165021 11.6208606 -7.24059392 11.36075115 -10.5625 11.3125 C-11.71878906 11.30863281 -12.87507813 11.30476563 -14.06640625 11.30078125 C-17 11 -17 11 -19 9 C-18.625 6.375 -18.625 6.375 -18 4 C-16.576875 4.12375 -16.576875 4.12375 -15.125 4.25 C-10.66851474 4.28652857 -7.07205897 2.62953623 -3.0390625 0.875 C-1 0 -1 0 0 0 Z " fill="#BF7E5F" transform="translate(123,61)"/>
<path d="M0 0 C3.31869641 1.3917114 4.90399424 2.86645149 6.9375 5.8125 C8.77390288 8.38720226 10.58043076 10.69743429 12.875 12.875 C13.57625 13.57625 14.2775 14.2775 15 15 C15 15.66 15 16.32 15 17 C17.65404064 18.04385696 17.65404064 18.04385696 21 18 C24.5185589 15.81319673 27.25482823 12.76708859 30.125 9.8125 C32.23320339 7.77457006 34.44410136 6.41994369 37 5 C35.81415384 9.15046157 33.97481042 11.12146617 30.58203125 13.73828125 C28.74614336 15.14913463 28.74614336 15.14913463 26.375 17.6875 C24.23493105 19.77125135 22.82122887 21.08992617 20 22 C16.70051405 21.52288492 15.04849947 20.43645526 12.75 18.0625 C12.22921875 17.53785156 11.7084375 17.01320312 11.171875 16.47265625 C10 15 10 15 10 13 C9.34 13 8.68 13 8 13 C6.55473264 11.26451831 5.1912778 9.46024037 3.875 7.625 C3.15054688 6.62726563 2.42609375 5.62953125 1.6796875 4.6015625 C0 2 0 2 0 0 Z " fill="#84110E" transform="translate(77,163)"/>
<path d="M0 0 C1.91635217 -0.05423638 3.83314925 -0.09289963 5.75 -0.125 C7.35101563 -0.15980469 7.35101563 -0.15980469 8.984375 -0.1953125 C11.99364381 -0.00041167 13.42391548 0.55913917 16 2 C18.32495277 2.38749213 20.65851268 2.72982839 23 3 C23.33 4.65 23.66 6.3 24 8 C18.11542026 9.09712504 16.11198557 9.19499098 11 6 C8.95385069 5.81970406 6.9886654 5.87547227 4.9375 5.9609375 C2.52449058 6.00958688 0.33476039 5.5836901 -2 5 C-1.01 4.34 -0.02 3.68 1 3 C0.67 2.01 0.34 1.02 0 0 Z " fill="#1B1817" transform="translate(90,82)"/>
<path d="M0 0 C0 0.66 0 1.32 0 2 C-0.66 2 -1.32 2 -2 2 C-2.26683594 2.57621094 -2.53367187 3.15242188 -2.80859375 3.74609375 C-4.42724929 6.80827161 -6.52676294 9.38005744 -8.66015625 12.09765625 C-11.22535851 15.73979474 -11.26237255 19.3570897 -11.5625 23.6875 C-11.64628906 24.86699219 -11.73007812 26.04648438 -11.81640625 27.26171875 C-11.87699219 28.16535156 -11.93757813 29.06898438 -12 30 C-14 27 -14 27 -14 25 C-14.66 25 -15.32 25 -16 25 C-16.78991468 16.96920076 -14.87770844 11.46603786 -10 5 C-7.07145115 2.48904052 -3.97944627 0 0 0 Z " fill="#204C8B" transform="translate(60,99)"/>
<path d="M0 0 C1.12865035 3.32575637 0.8691177 5.12203171 -0.375 8.375 C-1.65514162 11.91146429 -2.51962722 15.25309231 -3 19 C-5.31 19 -7.62 19 -10 19 C-9.48914188 12.56318772 -8.27057103 7.04057576 -6 1 C-5.34 1 -4.68 1 -4 1 C-3.67 1.66 -3.34 2.32 -3 3 C-2.01 2.01 -1.02 1.02 0 0 Z " fill="#2762C3" transform="translate(10,173)"/>
<path d="M0 0 C3 1 3 1 4 3 C4.78314981 9.64558551 4.4676587 14.76459276 0.51171875 20.2734375 C-1.7741731 22.8841977 -4.21657612 24.92861478 -7 27 C-6.58846263 22.02906176 -6.20399168 17.55491614 -4 13 C-3.34 13 -2.68 13 -2 13 C-2 11.68 -2 10.36 -2 9 C-1.34 9 -0.68 9 0 9 C0.84454356 5.62182575 1.10844919 3.32534757 0 0 Z " fill="#AD7063" transform="translate(134,58)"/>
<path d="M0 0 C0 2.31 0 4.62 0 7 C-0.66 7 -1.32 7 -2 7 C-2.04898438 7.74765625 -2.09796875 8.4953125 -2.1484375 9.265625 C-2.22320312 10.25046875 -2.29796875 11.2353125 -2.375 12.25 C-2.44460937 13.22453125 -2.51421875 14.1990625 -2.5859375 15.203125 C-2.99324864 17.9543965 -3.47411939 19.69055907 -5 22 C-8.125 23.75 -8.125 23.75 -11 25 C-10.125 18.125 -10.125 18.125 -9 17 C-8.67828685 15.61078411 -8.39246504 14.21317219 -8.125 12.8125 C-5.37072054 0 -5.37072054 0 0 0 Z " fill="#08205C" transform="translate(142,144)"/>
<path d="M0 0 C0.66 0 1.32 0 2 0 C2.33 3.3 2.66 6.6 3 10 C6.465 9.505 6.465 9.505 10 9 C10.69710731 10.28650706 11.38242876 11.57940665 12.0625 12.875 C12.44535156 13.59429687 12.82820313 14.31359375 13.22265625 15.0546875 C13.47917969 15.69664063 13.73570313 16.33859375 14 17 C13.67 17.66 13.34 18.32 13 19 C8.545 18.01 8.545 18.01 4 17 C3.67 15.35 3.34 13.7 3 12 C2.01 12.33 1.02 12.66 0 13 C-1.25069801 10.49860398 -1.13302467 8.72607309 -1.125 5.9375 C-1.12757812 5.03902344 -1.13015625 4.14054687 -1.1328125 3.21484375 C-1 1 -1 1 0 0 Z " fill="#191919" transform="translate(88,15)"/>
<path d="M0 0 C2 2 2 2 3.5625 5.25 C6.83381632 11.16305856 13.09924221 14.1434968 19 17 C18.34 17.33 17.68 17.66 17 18 C14.1796875 16.78515625 14.1796875 16.78515625 10.875 15.0625 C9.77929688 14.49660156 8.68359375 13.93070313 7.5546875 13.34765625 C6.71164063 12.90292969 5.86859375 12.45820313 5 12 C3.33019519 14.93885646 2.77463079 17.1390623 2.625 20.5 C2.32477169 23.81342881 2.13831879 24.81706224 0.0625 27.5625 C-2 29 -2 29 -4 29 C-4.33 29.66 -4.66 30.32 -5 31 C-5.66 30.34 -6.32 29.68 -7 29 C-5.625 27 -5.625 27 -4 25 C-3.34 25 -2.68 25 -2 25 C-1.67 23.68 -1.34 22.36 -1 21 C-0.67 21.33 -0.34 21.66 0 22 C0.02710123 19.4374282 0.04688771 16.87514635 0.0625 14.3125 C0.07087891 13.59126953 0.07925781 12.87003906 0.08789062 12.12695312 C0.10551942 8.26624636 -0.20043385 4.76732521 -1 1 C-0.67 0.67 -0.34 0.34 0 0 Z " fill="#1F4A89" transform="translate(142,116)"/>
<path d="M0 0 C2.85282169 1.02881286 4.5664196 2.14584351 7 4 C7 4.33 7 4.66 7 5 C2.54168018 5.02891546 -1.91661569 5.04676981 -6.375 5.0625 C-7.64601563 5.07087891 -8.91703125 5.07925781 -10.2265625 5.08789062 C-12.04414062 5.09272461 -12.04414062 5.09272461 -13.8984375 5.09765625 C-15.57945557 5.10551147 -15.57945557 5.10551147 -17.29443359 5.11352539 C-20 5 -20 5 -22 4 C-22.33 4.66 -22.66 5.32 -23 6 C-23 5.01 -23 4.02 -23 3 C-21.88625 2.690625 -20.7725 2.38125 -19.625 2.0625 C-12.78838547 0.05866471 -7.28500221 -0.62396571 0 0 Z " fill="#904736" transform="translate(101,87)"/>
<path d="M0 0 C1.5625 1.125 1.5625 1.125 3 3 C2.6875 6.1875 2.6875 6.1875 2 9 C1.01 8.67 0.02 8.34 -1 8 C-1 9.32 -1 10.64 -1 12 C-1.99 12.495 -1.99 12.495 -3 13 C-3.46651207 15.12576782 -3.46651207 15.12576782 -3.625 17.5625 C-3.69976562 18.38878906 -3.77453125 19.21507813 -3.8515625 20.06640625 C-3.90054688 20.70449219 -3.94953125 21.34257813 -4 22 C-4.66 22 -5.32 22 -6 22 C-5.938125 23.546875 -5.938125 23.546875 -5.875 25.125 C-5.99575149 28.86829627 -6.64872018 31.53734547 -8 35 C-9.60080151 30.99799622 -8.29279692 27.95443764 -7 24 C-8.3921875 25.0209375 -8.3921875 25.0209375 -9.8125 26.0625 C-10.864375 26.701875 -11.91625 27.34125 -13 28 C-13.99 27.67 -14.98 27.34 -16 27 C-15.45730469 26.84789063 -14.91460937 26.69578125 -14.35546875 26.5390625 C-11.50014084 25.33519452 -10.04262796 24.38105152 -8 22 C-6.06229329 16.23465509 -5.60030079 10.02176732 -5 4 C-4.34 4.66 -3.68 5.32 -3 6 C-2.01 4.02 -1.02 2.04 0 0 Z " fill="#432F2B" transform="translate(133,59)"/>
<path d="M0 0 C0.90492187 0.02320313 1.80984375 0.04640625 2.7421875 0.0703125 C4.10730469 0.09738281 4.10730469 0.09738281 5.5 0.125 C6.19867188 0.14820313 6.89734375 0.17140625 7.6171875 0.1953125 C7.2871875 2.1753125 6.9571875 4.1553125 6.6171875 6.1953125 C10.54794394 5.62078504 10.54794394 5.62078504 13.6171875 3.1953125 C13.6171875 4.5153125 13.6171875 5.8353125 13.6171875 7.1953125 C7.20322927 9.12543882 3.00419223 9.28560496 -3.3828125 7.1953125 C-3.7128125 7.8553125 -4.0428125 8.5153125 -4.3828125 9.1953125 C-4.5078125 5.8203125 -4.5078125 5.8203125 -4.3828125 2.1953125 C-2.3828125 0.1953125 -2.3828125 0.1953125 0 0 Z " fill="#9C5C4A" transform="translate(68.3828125,54.8046875)"/>
<path d="M0 0 C0.99 0 1.98 0 3 0 C2.66937105 5.29006313 -0.23876509 9.43847668 -4 13 C-6.5337755 13.95269959 -8.24567342 14 -11 14 C-10.67 11.69 -10.34 9.38 -10 7 C-9.0925 6.773125 -8.185 6.54625 -7.25 6.3125 C-3.52404284 4.80778653 -2.38994916 3.13165752 0 0 Z " fill="#AC6D56" transform="translate(107,93)"/>
<path d="M0 0 C0.99 0.33 1.98 0.66 3 1 C3 1.66 3 2.32 3 3 C5.31 3.33 7.62 3.66 10 4 C10 2.68 10 1.36 10 0 C15.47826087 -0.36521739 15.47826087 -0.36521739 17.875 1.3125 C19 3 19 3 19 6 C17.58847656 6.09087891 17.58847656 6.09087891 16.1484375 6.18359375 C14.90320313 6.26738281 13.65796875 6.35117187 12.375 6.4375 C11.14523438 6.51871094 9.91546875 6.59992187 8.6484375 6.68359375 C5.38467612 6.96663944 2.22056141 7.41038953 -1 8 C-0.67 5.36 -0.34 2.72 0 0 Z " fill="#985241" transform="translate(64,46)"/>
<path d="M0 0 C1.32 0.66 2.64 1.32 4 2 C3.01 2.495 3.01 2.495 2 3 C1.41756761 5.25110118 0.93291575 7.52792827 0.5 9.8125 C-0.28037094 13.90520629 -1.02938043 17.33687248 -3 21 C-3.37791711 22.32138849 -3.7102791 23.65651547 -4 25 C-4.17660156 25.77859375 -4.35320313 26.5571875 -4.53515625 27.359375 C-4.70917969 28.14828125 -4.88320313 28.9371875 -5.0625 29.75 C-5.23910156 30.54921875 -5.41570313 31.3484375 -5.59765625 32.171875 C-5.73042969 32.77515625 -5.86320313 33.3784375 -6 34 C-6.33 34 -6.66 34 -7 34 C-7.24159951 26.93992545 -7.35575439 19.75232275 -5 13 C-4.48179688 12.49597656 -3.96359375 11.99195313 -3.4296875 11.47265625 C-1.80790057 10.10252989 -1.80790057 10.10252989 -1.77734375 8.02734375 C-1.83019531 7.33769531 -1.88304687 6.64804688 -1.9375 5.9375 C-1.958125 4.638125 -1.97875 3.33875 -2 2 C-1.34 1.34 -0.68 0.68 0 0 Z " fill="#205094" transform="translate(21,148)"/>
<path d="M0 0 C0 0.33 0 0.66 0 1 C-1.39025391 1.19916016 -1.39025391 1.19916016 -2.80859375 1.40234375 C-4.60490234 1.66724609 -4.60490234 1.66724609 -6.4375 1.9375 C-7.63246094 2.11152344 -8.82742187 2.28554688 -10.05859375 2.46484375 C-12.87955676 2.68985213 -12.87955676 2.68985213 -14 4 C-14.82009879 10.56079032 -12.47131329 14.53268157 -9 20 C-10.859375 19.75390625 -10.859375 19.75390625 -13 19 C-14.265625 17.15234375 -14.265625 17.15234375 -15.25 14.9375 C-15.58515625 14.20402344 -15.9203125 13.47054687 -16.265625 12.71484375 C-16.62914062 11.86599609 -16.62914062 11.86599609 -17 11 C-17.66 11 -18.32 11 -19 11 C-18.67 9.35 -18.34 7.7 -18 6 C-18.66 6 -19.32 6 -20 6 C-20 4.68 -20 3.36 -20 2 C-12.95015484 -0.65494169 -7.42893413 -1.31191816 0 0 Z " fill="#37230F" transform="translate(79,53)"/>
<path d="M0 0 C0.71607422 -0.00386719 1.43214844 -0.00773437 2.16992188 -0.01171875 C5.60428156 -0.00535293 8.78114926 0.04549558 12.0625 1.125 C11.7325 2.775 11.4025 4.425 11.0625 6.125 C10.0725 5.795 9.0825 5.465 8.0625 5.125 C6.65425107 5.04478001 5.24252769 5.01734023 3.83203125 5.02734375 C2.62836914 5.03217773 2.62836914 5.03217773 1.40039062 5.03710938 C0.56701172 5.04548828 -0.26636719 5.05386719 -1.125 5.0625 C-2.3924707 5.06926758 -2.3924707 5.06926758 -3.68554688 5.07617188 C-5.76956155 5.08794597 -7.85353977 5.1058811 -9.9375 5.125 C-10.2675 3.805 -10.5975 2.485 -10.9375 1.125 C-7.25089303 -0.10386899 -3.83687025 -0.02060987 0 0 Z " fill="#813A2F" transform="translate(93.9375,77.875)"/>
<path d="M0 0 C2.04136395 -0.05451714 4.08315856 -0.09302485 6.125 -0.125 C7.83042969 -0.15980469 7.83042969 -0.15980469 9.5703125 -0.1953125 C13.05757767 0.00327891 15.7553862 0.7475199 19 2 C19 3.98 19 5.96 19 8 C18.67 7.34 18.34 6.68 18 6 C16.34385343 5.61781233 14.67542976 5.28604898 13 5 C12.34 4.67 11.68 4.34 11 4 C10.67 4.99 10.34 5.98 10 7 C8.35 7 6.7 7 5 7 C5 6.01 5 5.02 5 4 C4.34 3.67 3.68 3.34 3 3 C3.33 2.67 3.66 2.34 4 2 C2.68 1.34 1.36 0.68 0 0 Z " fill="#934D3B" transform="translate(70,54)"/>
<path d="M0 0 C0 2.64 0 5.28 0 8 C-5.28 8 -10.56 8 -16 8 C-16 7.34 -16 6.68 -16 6 C-14.68 6 -13.36 6 -12 6 C-12 5.34 -12 4.68 -12 4 C-10.75539217 3.32332002 -9.50403104 2.65905281 -8.25 2 C-7.55390625 1.62875 -6.8578125 1.2575 -6.140625 0.875 C-4 0 -4 0 0 0 Z " fill="#193B68" transform="translate(58,184)"/>
<path d="M0 0 C0 3 0 3 -1.72265625 4.8671875 C-4.13099518 6.9337755 -6.55176419 8.98079587 -9 11 C-9.59554687 11.52722656 -10.19109375 12.05445313 -10.8046875 12.59765625 C-18.32270321 18.76674569 -28.81241784 17.14207601 -38 17 C-38.33 16.34 -38.66 15.68 -39 15 C-37.9378125 14.95101562 -36.875625 14.90203125 -35.78125 14.8515625 C-22.1520583 14.51588845 -22.1520583 14.51588845 -10 9 C-9.175 8.01 -8.35 7.02 -7.5 6 C-5.13274457 3.15929349 -3.25079222 1.671836 0 0 Z " fill="#9F5C4D" transform="translate(118,117)"/>
<path d="M0 0 C2.4375 2 2.4375 2 4 4 C3.34 5.32 2.68 6.64 2 8 C0.02 7.34 -1.96 6.68 -4 6 C-4 5.34 -4 4.68 -4 4 C-5.32 4.99 -6.64 5.98 -8 7 C-8.66 6.67 -9.32 6.34 -10 6 C-10.33 6.66 -10.66 7.32 -11 8 C-11.33 6.35 -11.66 4.7 -12 3 C-7.92081084 0.03331698 -5.01742187 -0.63858096 0 0 Z " fill="#7C3F34" transform="translate(111,54)"/>
<path d="M0 0 C0.99 0.33 1.98 0.66 3 1 C2.55120234 3.62696231 2.09145886 6.25116893 1.625 8.875 C1.49867187 9.62136719 1.37234375 10.36773437 1.2421875 11.13671875 C0.2265625 16.7734375 0.2265625 16.7734375 -2 19 C-2.61287697 21.31956908 -3.0144199 23.64296818 -3.4375 26.00390625 C-3.623125 26.66261719 -3.80875 27.32132813 -4 28 C-4.66 28.33 -5.32 28.66 -6 29 C-7.29249286 24.60552427 -6.5001366 22.25123457 -5 18 C-4.30019805 15.62859567 -3.61301694 13.25343607 -2.9375 10.875 C-2.59589844 9.67617188 -2.25429688 8.47734375 -1.90234375 7.2421875 C-1.23209849 4.83394696 -0.58623957 2.42957018 0 0 Z " fill="#1B1D1E" transform="translate(60,21)"/>
<path d="M0 0 C0.66 0 1.32 0 2 0 C1.42334609 4.7871428 -0.64082996 8.25128824 -3.0625 12.3125 C-3.62807617 13.28026367 -3.62807617 13.28026367 -4.20507812 14.26757812 C-5.13037493 15.84878152 -6.06432681 17.4249146 -7 19 C-9.97 19 -12.94 19 -16 19 C-15.443125 18.608125 -14.88625 18.21625 -14.3125 17.8125 C-8.88381392 13.55758389 -5.48336835 8.84228095 -2 3 C-1.34 2.01 -0.68 1.02 0 0 Z " fill="#13325C" transform="translate(167,173)"/>
<path d="M0 0 C1.32 0 2.64 0 4 0 C3.00956295 4.83628305 2.04301154 9.47618873 0 14 C-0.66 14 -1.32 14 -2 14 C-2.33 13.34 -2.66 12.68 -3 12 C-3.33 13.65 -3.66 15.3 -4 17 C-4.99 17.33 -5.98 17.66 -7 18 C-5.79662881 11.10796502 -3.67864914 5.93919307 0 0 Z " fill="#2667D1" transform="translate(12,154)"/>
<path d="M0 0 C0.66 0 1.32 0 2 0 C3.20194795 6.91120071 3.97636787 14.17682521 2 21 C0.35 21 -1.3 21 -3 21 C-3.66 22.32 -4.32 23.64 -5 25 C-5 23.35 -5 21.7 -5 20 C-4.01 19.67 -3.02 19.34 -2 19 C-1.34 12.73 -0.68 6.46 0 0 Z " fill="#735266" transform="translate(72,107)"/>
<path d="M0 0 C1.41623216 -0.05447047 2.83308191 -0.09300508 4.25 -0.125 C5.03890625 -0.14820313 5.8278125 -0.17140625 6.640625 -0.1953125 C9.20731941 0.0171622 10.7916067 0.71345895 13 2 C13 4.64 13 7.28 13 10 C12.34 9.34 11.68 8.68 11 8 C7.90073181 8.32198966 7.90073181 8.32198966 5 9 C4.9175 8.443125 4.835 7.88625 4.75 7.3125 C3.77389987 4.30285794 2.04811186 2.37845248 0 0 Z " fill="#A15D47" transform="translate(111,54)"/>
<path d="M0 0 C0.66 0 1.32 0 2 0 C1.34 3.3 0.68 6.6 0 10 C-1.32 10 -2.64 10 -4 10 C-1.36 10.66 1.28 11.32 4 12 C2.68 12.33 1.36 12.66 0 13 C0 13.66 0 14.32 0 15 C-2.31 15 -4.62 15 -7 15 C-7.3125 11.8125 -7.3125 11.8125 -7 8 C-4.625 5.25 -4.625 5.25 -2 3 C-1.34 2.01 -0.68 1.02 0 0 Z " fill="#133260" transform="translate(42,177)"/>
<path d="M0 0 C0.66 0.66 1.32 1.32 2 2 C1.979375 3.093125 1.95875 4.18625 1.9375 5.3125 C2.59445487 9.13443343 2.59445487 9.13443343 5.5078125 10.5703125 C8.3091617 11.82411329 11.11044139 12.9669947 14 14 C14 14.33 14 14.66 14 15 C9.38 15 4.76 15 0 15 C0 10.05 0 5.1 0 0 Z " fill="#123156" transform="translate(133,177)"/>
<path d="M0 0 C2.31091497 3.46637245 3.71570542 7.06927755 5.1875 10.9375 C5.47302734 11.65357422 5.75855469 12.36964844 6.05273438 13.10742188 C7.48285089 16.86191268 8.24181125 19.16847387 7 23 C7 22.34 7 21.68 7 21 C6.01 20.67 5.02 20.34 4 20 C2.8125 17.4375 2.8125 17.4375 2 15 C1.01 15.33 0.02 15.66 -1 16 C-1 14.68 -1 13.36 -1 12 C-0.34 12 0.32 12 1 12 C0.67 8.04 0.34 4.08 0 0 Z " fill="#27305C" transform="translate(63,149)"/>
<path d="M0 0 C0.66 0.33 1.32 0.66 2 1 C1.67 3.64 1.34 6.28 1 9 C1.66 8.34 2.32 7.68 3 7 C3 9.97 3 12.94 3 16 C4.32 16.66 5.64 17.32 7 18 C7 18.99 7 19.98 7 21 C7.66 21.33 8.32 21.66 9 22 C8.67 23.32 8.34 24.64 8 26 C8 25.01 8 24.02 8 23 C7.39542969 22.7421875 6.79085937 22.484375 6.16796875 22.21875 C2.43037151 20.11761425 0.70614665 16.8515624 -1 13 C-1.77056406 9.65594958 -2.23766805 6.43095166 -2 3 C-1.34 2.01 -0.68 1.02 0 0 Z " fill="#73454F" transform="translate(53,60)"/>
<path d="M0 0 C0.66 0 1.32 0 2 0 C6.04654428 6.91284647 5.26901851 14.25824503 5 22 C4.67 22 4.34 22 4 22 C3.95101562 21.28972656 3.90203125 20.57945312 3.8515625 19.84765625 C3.77679688 18.92855469 3.70203125 18.00945312 3.625 17.0625 C3.52058594 15.68771484 3.52058594 15.68771484 3.4140625 14.28515625 C3.20910156 13.15400391 3.20910156 13.15400391 3 12 C2.34 11.67 1.68 11.34 1 11 C1 12.65 1 14.3 1 16 C-0.88391785 12.73454239 -1.49287967 9.71888239 -2 6 C-1.34 6 -0.68 6 0 6 C0 4.02 0 2.04 0 0 Z " fill="#162E5C" transform="translate(68,170)"/>
<path d="M0 0 C6.6 0.33 13.2 0.66 20 1 C19.67 1.99 19.34 2.98 19 4 C14.48382401 4.07654536 10.40914783 4.10228696 6 3 C5.67 3.66 5.34 4.32 5 5 C4.67 4.34 4.34 3.68 4 3 C3.67 4.98 3.34 6.96 3 9 C0.9375 7.3125 0.9375 7.3125 -1 5 C-0.67 3.35 -0.34 1.7 0 0 Z " fill="#925143" transform="translate(79,91)"/>
<path d="M0 0 C6.6 0 13.2 0 20 0 C20.33 1.32 20.66 2.64 21 4 C13.41 4 5.82 4 -2 4 C-1.34 2.68 -0.68 1.36 0 0 Z " fill="#AE5841" transform="translate(85,75)"/>
<path d="M0 0 C4.13782924 4.27575688 5.05944297 8.31953056 6 14 C3.36 14.66 0.72 15.32 -2 16 C-2 16.66 -2 17.32 -2 18 C-2.66 18 -3.32 18 -4 18 C-4.12375 18.556875 -4.2475 19.11375 -4.375 19.6875 C-5.05976855 22.22114364 -5.99133763 24.57921032 -7 27 C-7.33 27 -7.66 27 -8 27 C-8.32644414 22.83783725 -8.40650982 20.63686538 -6.125 17.0625 C-4 15 -4 15 -2 15 C-2 14.34 -2 13.68 -2 13 C-0.02 12.67 1.96 12.34 4 12 C3.71125 11.38511719 3.4225 10.77023438 3.125 10.13671875 C2.75375 9.32847656 2.3825 8.52023438 2 7.6875 C1.443125 6.48673828 1.443125 6.48673828 0.875 5.26171875 C0 3 0 3 0 0 Z " fill="#0C254E" transform="translate(62,86)"/>
<path d="M0 0 C4.48686327 3.36514745 4.48686327 3.36514745 5.1875 7.125 C5.58176572 10.76408191 5.58176572 10.76408191 7 12 C7.58730959 18.10801973 7.11858387 18.85177016 3 24 C3 17.4 3 10.8 3 4 C2.34 4 1.68 4 1 4 C1 7.63 1 11.26 1 15 C0.67 15 0.34 15 0 15 C0 10.05 0 5.1 0 0 Z " fill="#674554" transform="translate(71,103)"/>
<path d="M0 0 C2 2 2 2 2.125 5.125 C2.08375 6.07375 2.0425 7.0225 2 8 C2.66 8 3.32 8 4 8 C4 9.65 4 11.3 4 13 C3.34 13 2.68 13 2 13 C1.34 14.32 0.68 15.64 0 17 C-0.33 17 -0.66 17 -1 17 C-1.37125 15.329375 -1.37125 15.329375 -1.75 13.625 C-2.61005339 9.95384802 -2.61005339 9.95384802 -5.125 8.5625 C-5.74375 8.376875 -6.3625 8.19125 -7 8 C-4.64561267 6.57055055 -3.51967567 5.91338739 -0.75 6.375 C-0.1725 6.58125 0.405 6.7875 1 7 C0.67 4.69 0.34 2.38 0 0 Z " fill="#291A08" transform="translate(126,46)"/>
<path d="M0 0 C0.66 0.33 1.32 0.66 2 1 C-0.31 3.64 -2.62 6.28 -5 9 C-4.01 9.99 -3.02 10.98 -2 12 C-4.64 12 -7.28 12 -10 12 C-9.938125 12.763125 -9.87625 13.52625 -9.8125 14.3125 C-10 17 -10 17 -11.375 18.8125 C-13 20 -13 20 -15 20 C-15.33 20.66 -15.66 21.32 -16 22 C-14.63142339 14.81497281 -9.23352235 8.82034953 -4 4 C-3.236875 3.236875 -2.47375 2.47375 -1.6875 1.6875 C-1.130625 1.130625 -0.57375 0.57375 0 0 Z " fill="#3E3F40" transform="translate(68,6)"/>
<path d="M0 0 C1 2 1 2 0.125 5 C-1 8 -1 8 -2 10 C-2.0716735 12.55157655 -2.09308442 15.07472971 -2.0625 17.625 C-2.05573242 18.68460938 -2.05573242 18.68460938 -2.04882812 19.765625 C-2.03703875 21.51045275 -2.01910324 23.255237 -2 25 C-4 22 -4 22 -4 20 C-4.66 20 -5.32 20 -6 20 C-6.81038091 11.76112738 -4.34674122 6.92115045 0 0 Z " fill="#355EA0" transform="translate(50,104)"/>
<path d="M0 0 C0.99 0.33 1.98 0.66 3 1 C2.5020163 4.73487777 2.12508244 6.81237635 0 10 C-0.66 10 -1.32 10 -2 10 C-2 11.32 -2 12.64 -2 14 C-2.99 14.33 -3.98 14.66 -5 15 C-4.21681311 11.08406554 -2.60820142 7.63593365 -1 4 C-5.29 3.67 -9.58 3.34 -14 3 C-14 2.67 -14 2.34 -14 2 C-13.07316406 1.93941406 -12.14632812 1.87882812 -11.19140625 1.81640625 C-9.39509766 1.69072266 -9.39509766 1.69072266 -7.5625 1.5625 C-5.77005859 1.44068359 -5.77005859 1.44068359 -3.94140625 1.31640625 C-1.11429756 1.32343886 -1.11429756 1.32343886 0 0 Z " fill="#9F634D" transform="translate(122,71)"/>
<path d="M0 0 C1.74738814 4.13019016 0.06857848 7.63511414 -1.3125 11.625 C-3.32220676 17.69767428 -4.98063951 23.67083638 -6 30 C-7.53515625 28.1953125 -7.53515625 28.1953125 -9 26 C-8.08963995 20.94244418 -5.96193413 16.32137098 -4.01953125 11.578125 C-2.51447255 7.77222943 -1.2428764 3.89811235 0 0 Z " fill="#A51A19" transform="translate(133,131)"/>
<path d="M0 0 C0.33 0.66 0.66 1.32 1 2 C1.66 1.67 2.32 1.34 3 1 C3.95727848 6.3085443 3.95727848 6.3085443 4 9 C2.6875 10.8125 2.6875 10.8125 1 12 C0.01 13.485 0.01 13.485 -1 15 C-1 12.03 -1 9.06 -1 6 C-1.99 5.67 -2.98 5.34 -4 5 C-4 3.68 -4 2.36 -4 1 C-2 0 -2 0 0 0 Z " fill="#2358AC" transform="translate(16,149)"/>
<path d="M0 0 C0.99 0.33 1.98 0.66 3 1 C2.52519254 5.27326712 1.97327562 7.02672438 -1 10 C-0.979375 10.825 -0.95875 11.65 -0.9375 12.5 C-0.958125 13.325 -0.97875 14.15 -1 15 C-3 16.8125 -3 16.8125 -5 18 C-4.58846263 13.02906176 -4.20399168 8.55491614 -2 4 C-1.34 4 -0.68 4 0 4 C0 2.68 0 1.36 0 0 Z " fill="#A16C5C" transform="translate(132,67)"/>
<path d="M0 0 C0.66 0 1.32 0 2 0 C2 2.97 2 5.94 2 9 C1.67 9 1.34 9 1 9 C0.45627049 5.94152152 0 3.11227195 0 0 Z M-3 3 C-1 4 -1 4 -1 4 Z M-1 9 C-0.34 9.33 0.32 9.66 1 10 C1.625 12.0625 1.625 12.0625 2 14 C1.34 14 0.68 14 0 14 C0.0825 15.258125 0.165 16.51625 0.25 17.8125 C0.390625 19.95703125 0.390625 19.95703125 0 22 C-1.32 22.99 -2.64 23.98 -4 25 C-3.01 19.72 -2.02 14.44 -1 9 Z " fill="#133365" transform="translate(141,142)"/>
<path d="M0 0 C0.66 0 1.32 0 2 0 C2.75 1.6875 2.75 1.6875 3 4 C1.02040711 7.40489978 -0.18498946 8.76228859 -4 9.875 C-6.69394137 9.98724756 -8.45083515 9.71420567 -11 9 C-10.28972656 8.51789063 -9.57945313 8.03578125 -8.84765625 7.5390625 C-7.92855469 6.90742188 -7.00945313 6.27578125 -6.0625 5.625 C-5.14597656 4.99851563 -4.22945312 4.37203125 -3.28515625 3.7265625 C-0.91612836 2.20228929 -0.91612836 2.20228929 0 0 Z " fill="#4D7CC3" transform="translate(44,124)"/>
<path d="M0 0 C0.33 0 0.66 0 1 0 C1.53832499 6.02923986 0.82103884 8.91300144 -2.62109375 13.8359375 C-5.02775496 17.61296387 -6.46321381 21.81032592 -8 26 C-8.66 26 -9.32 26 -10 26 C-9.81824219 25.47792969 -9.63648438 24.95585937 -9.44921875 24.41796875 C-7.37440957 18.34250187 -5.63584831 12.20694217 -4 6 C-3.34 6.66 -2.68 7.32 -2 8 C-1.34 5.36 -0.68 2.72 0 0 Z " fill="#1F4E91" transform="translate(43,140)"/>
<path d="M0 0 C0.33 0.66 0.66 1.32 1 2 C0.01 3.485 0.01 3.485 -1 5 C-1.38499891 6.65549531 -1.72793135 8.3222433 -2 10 C-2.66 10 -3.32 10 -4 10 C-3.34 14.62 -2.68 19.24 -2 24 C-5.69218686 19.07708419 -7.36329586 15.17602966 -7 9 C-6.34 9 -5.68 9 -5 9 C-5 8.34 -5 7.68 -5 7 C-4.34 7 -3.68 7 -3 7 C-2.814375 6.1028125 -2.814375 6.1028125 -2.625 5.1875 C-2 3 -2 3 0 0 Z " fill="#1A1F21" transform="translate(56,35)"/>
<path d="M0 0 C1 3 1 3 0.109375 5.2265625 C-0.33921875 6.01804687 -0.7878125 6.80953125 -1.25 7.625 C-1.68828125 8.42164062 -2.1265625 9.21828125 -2.578125 10.0390625 C-4 12 -4 12 -7 13 C-9.22818441 13.06937062 -11.45834524 13.08457084 -13.6875 13.0625 C-15.45673828 13.04896484 -15.45673828 13.04896484 -17.26171875 13.03515625 C-18.16535156 13.02355469 -19.06898437 13.01195313 -20 13 C-19.67 12.34 -19.34 11.68 -19 11 C-16.91786015 10.92647811 -14.83333146 10.91647984 -12.75 10.9375 C-7.82924317 10.78010594 -7.82924317 10.78010594 -4.0625 7.97265625 C-2.84769136 5.68404355 -1.87992224 3.43382746 -1 1 C-0.67 0.67 -0.34 0.34 0 0 Z " fill="#533720" transform="translate(89,61)"/>
<path d="M0 0 C2.4294516 3.6441774 2.16179575 5.71241272 2 10 C1.34 8.68 0.68 7.36 0 6 C-3.26460973 7.80412643 -4.88929795 8.83394693 -7 12 C-7.66 12 -8.32 12 -9 12 C-9.33 12.99 -9.66 13.98 -10 15 C-12.5625 16.1875 -12.5625 16.1875 -15 17 C-11.83306002 13.10918802 -8.55029082 9.55029082 -5 6 C-3.29231326 4.030312 -1.64600848 2.02223899 0 0 Z " fill="#804944" transform="translate(118,112)"/>
<path d="M0 0 C2.61940964 2.50552226 3.95696227 3.85347491 4.09765625 7.6015625 C4.08605469 8.59929687 4.07445312 9.59703125 4.0625 10.625 C4.05347656 11.62789062 4.04445312 12.63078125 4.03515625 13.6640625 C4.02355469 14.43492187 4.01195312 15.20578125 4 16 C1.22987155 14.12346137 0.11892426 12.60882119 -0.5234375 9.3203125 C-0.79145324 6.53150002 -1.02315729 3.80203246 -1 1 C-0.67 0.67 -0.34 0.34 0 0 Z " fill="#1F54A8" transform="translate(139,117)"/>
<path d="M0 0 C3.96 0 7.92 0 12 0 C12 0.33 12 0.66 12 1 C10.35 1 8.7 1 7 1 C7 1.99 7 2.98 7 4 C8.65 4 10.3 4 12 4 C11.67 4.66 11.34 5.32 11 6 C6.48382401 6.07654536 2.40914783 6.10228696 -2 5 C-1.01 4.34 -0.02 3.68 1 3 C0.67 2.01 0.34 1.02 0 0 Z " fill="#2D1D1A" transform="translate(90,82)"/>
<path d="M0 0 C-2.6174225 3.23328662 -6.02117397 4.98763598 -10 6 C-12.89582777 6.0462921 -15.13196957 5.64283441 -18 5 C-18.33 4.34 -18.66 3.68 -19 3 C-18.01 3.0825 -17.02 3.165 -16 3.25 C-11.95714775 3.29100256 -9.30020459 1.83739463 -5.89453125 -0.22265625 C-3.53493698 -1.19081967 -2.36176985 -0.8326417 0 0 Z " fill="#0E294F" transform="translate(56,183)"/>
<path d="M0 0 C0.33 0 0.66 0 1 0 C2.19937786 6.37259801 2.06475363 10.23826317 -1 16 C-1.66 16 -2.32 16 -3 16 C-3.37851209 10.06997733 -2.10575375 5.52760359 0 0 Z " fill="#203872" transform="translate(134,133)"/>
<path d="M0 0 C0.66 0.33 1.32 0.66 2 1 C-0.42764573 3.93872904 -2.27721329 4.46817333 -6 5 C-7.2684375 5.309375 -7.2684375 5.309375 -8.5625 5.625 C-11.19037305 6.02928816 -12.50105508 5.83298164 -15 5 C-16.0725 4.649375 -17.145 4.29875 -18.25 3.9375 C-19.1575 3.628125 -20.065 3.31875 -21 3 C-17.24304701 1.12152351 -12.6069736 2.05144959 -8.48046875 2.16015625 C-5.11272216 2.00518699 -3.05012627 1.30876154 0 0 Z " fill="#501F1B" transform="translate(107,112)"/>
<path d="M0 0 C0.33 0 0.66 0 1 0 C1.06058594 0.60328125 1.12117188 1.2065625 1.18359375 1.828125 C1.26738281 2.62734375 1.35117187 3.4265625 1.4375 4.25 C1.55931641 5.43335937 1.55931641 5.43335937 1.68359375 6.640625 C1.95064289 8.97491621 1.95064289 8.97491621 2.53515625 11.109375 C3 13 3 13 3 16 C2.34 16 1.68 16 1 16 C0.67 16.99 0.34 17.98 0 19 C-0.99 19 -1.98 19 -3 19 C-2.68289062 18.15179688 -2.36578125 17.30359375 -2.0390625 16.4296875 C-0.97128768 12.90522775 -0.59958921 9.79329043 -0.375 6.125 C-0.30023438 4.97257812 -0.22546875 3.82015625 -0.1484375 2.6328125 C-0.09945312 1.76398438 -0.05046875 0.89515625 0 0 Z " fill="#184084" transform="translate(48,116)"/>
<path d="M0 0 C1.5625 1.125 1.5625 1.125 3 3 C2.6875 6.1875 2.6875 6.1875 2 9 C1.01 8.67 0.02 8.34 -1 8 C-1 9.32 -1 10.64 -1 12 C-1.99 12.33 -2.98 12.66 -4 13 C-3.50269348 8.02693484 -2.44697666 4.36200187 0 0 Z " fill="#873E35" transform="translate(133,59)"/>
<path d="M0 0 C0.99 0.33 1.98 0.66 3 1 C3 1.66 3 2.32 3 3 C5.97 3.495 5.97 3.495 9 4 C9 4.66 9 5.32 9 6 C5.38026598 7.31626692 2.90432869 8 -1 8 C-0.67 5.36 -0.34 2.72 0 0 Z " fill="#7B4F4F" transform="translate(64,46)"/>
<path d="M0 0 C1.32 0 2.64 0 4 0 C4 1.32 4 2.64 4 4 C0.04 5.98 0.04 5.98 -4 8 C-4 7.01 -4 6.02 -4 5 C-4.99 5.33 -5.98 5.66 -7 6 C-7 5.34 -7 4.68 -7 4 C-4.35261084 2.5393715 -3.10551666 2 0 2 C0 1.34 0 0.68 0 0 Z " fill="#2E69C6" transform="translate(20,144)"/>
<path d="M0 0 C0.66 0.33 1.32 0.66 2 1 C2 6.61 2 12.22 2 18 C1.01 18.33 0.02 18.66 -1 19 C-1.33 18.34 -1.66 17.68 -2 17 C-1.67 16.34 -1.34 15.68 -1 15 C-3.475 14.01 -3.475 14.01 -6 13 C-6 12.67 -6 12.34 -6 12 C-4.35 12 -2.7 12 -1 12 C-0.67 8.04 -0.34 4.08 0 0 Z " fill="#7F4F4D" transform="translate(61,63)"/>
<path d="M0 0 C0.66 0 1.32 0 2 0 C2.33 5.61 2.66 11.22 3 17 C1 16 1 16 0 13 C-0.06937062 10.77181559 -0.08457084 8.54165476 -0.0625 6.3125 C-0.05347656 5.13300781 -0.04445312 3.95351562 -0.03515625 2.73828125 C-0.02355469 1.83464844 -0.01195312 0.93101563 0 0 Z " fill="#B07A71" transform="translate(62,66)"/>
<path d="M0 0 C3.77727089 1.81309003 7.37269822 3.9073259 11 6 C11 6.33 11 6.66 11 7 C6.71 6.67 2.42 6.34 -2 6 C-1.01 5.67 -0.02 5.34 1 5 C0.67 3.35 0.34 1.7 0 0 Z " fill="#5E312E" transform="translate(82,47)"/>
<path d="M0 0 C1.32 0.33 2.64 0.66 4 1 C3.34 1.66 2.68 2.32 2 3 C1.38712303 5.31956908 0.9855801 7.64296818 0.5625 10.00390625 C0.376875 10.66261719 0.19125 11.32132813 0 12 C-0.99 12.495 -0.99 12.495 -2 13 C-3.47081114 7.99924211 -2.28141244 4.56282488 0 0 Z " fill="#131515" transform="translate(56,37)"/>
<path d="M0 0 C0.66 0 1.32 0 2 0 C4.1519437 3.22791555 4.20086443 4.28400809 4 8 C3.34 7.67 2.68 7.34 2 7 C1.80664062 7.78246094 1.61328125 8.56492188 1.4140625 9.37109375 C1.15367187 10.38300781 0.89328125 11.39492187 0.625 12.4375 C0.24214844 13.95150391 0.24214844 13.95150391 -0.1484375 15.49609375 C-1 18 -1 18 -3 19 C-2.5359375 17.081875 -2.5359375 17.081875 -2.0625 15.125 C-0.93885167 10.11241278 -0.40577419 5.11489044 0 0 Z " fill="#981512" transform="translate(131,125)"/>
<path d="M0 0 C4.29 0 8.58 0 13 0 C11.68 1.32 10.36 2.64 9 4 C6.525 3.01 6.525 3.01 4 2 C3.67 2.66 3.34 3.32 3 4 C2.01 3.67 1.02 3.34 0 3 C0 2.01 0 1.02 0 0 Z " fill="#803021" transform="translate(88,96)"/>
<path d="M0 0 C0.33 1.32 0.66 2.64 1 4 C-4.30723432 5.42705634 -8.53891111 6.4002792 -14 5 C-14 4.67 -14 4.34 -14 4 C-12.35 4 -10.7 4 -9 4 C-8.67 3.01 -8.34 2.02 -8 1 C-7.34 1 -6.68 1 -6 1 C-6 1.66 -6 2.32 -6 3 C-3.52733235 2.65555119 -3.52733235 2.65555119 -1 2 C-0.67 1.34 -0.34 0.68 0 0 Z " fill="#986B57" transform="translate(81,58)"/>
<path d="M0 0 C0.99 0 1.98 0 3 0 C1.54331217 2.96783129 -0.01232086 5.86415313 -1.625 8.75 C-2.29402344 9.94882813 -2.29402344 9.94882813 -2.9765625 11.171875 C-3.48316406 12.07679688 -3.48316406 12.07679688 -4 13 C-4.33 13 -4.66 13 -5 13 C-5 11.02 -5 9.04 -5 7 C-4.34 7 -3.68 7 -3 7 C-2.690625 6.21625 -2.38125 5.4325 -2.0625 4.625 C-1 2 -1 2 0 0 Z " fill="#194690" transform="translate(134,146)"/>
<path d="M0 0 C5.94 0.33 11.88 0.66 18 1 C17.67 1.99 17.34 2.98 17 4 C16.34 3.67 15.68 3.34 15 3 C12.9625237 2.77141886 10.91959697 2.58975722 8.875 2.4375 C7.23144531 2.31181641 7.23144531 2.31181641 5.5546875 2.18359375 C4.71164063 2.12300781 3.86859375 2.06242187 3 2 C3 2.66 3 3.32 3 4 C2.01 3.67 1.02 3.34 0 3 C0 2.01 0 1.02 0 0 Z " fill="#943E2E" transform="translate(85,94)"/>
<path d="M0 0 C0.94467607 2.55062538 1.02758299 3.88690973 0.375 6.5625 C-1.29402218 9.52122114 -2.99958243 10.49979122 -6 12 C-6 8 -6 8 -4.6875 6.5625 C-4.130625 6.046875 -3.57375 5.53125 -3 5 C-1.96642853 3.35394174 -0.95939668 1.69036558 0 0 Z " fill="#8E5244" transform="translate(126,73)"/>
<path d="M0 0 C0.33 0.66 0.66 1.32 1 2 C0.01 3.485 0.01 3.485 -1 5 C-3.625 5.1875 -3.625 5.1875 -6 5 C-6 4.01 -6 3.02 -6 2 C-6.66 1.67 -7.32 1.34 -8 1 C-5.29120665 -0.35439668 -2.99066732 -0.06501451 0 0 Z " fill="#351F15" transform="translate(81,56)"/>
<path d="M0 0 C0.99 0.66 1.98 1.32 3 2 C2.57576756 3.46224799 2.13509755 4.91973412 1.6875 6.375 C1.44386719 7.18710938 1.20023437 7.99921875 0.94921875 8.8359375 C0 11 0 11 -3 13 C-2.45144652 8.428721 -1.58255197 4.32564205 0 0 Z " fill="#272A53" transform="translate(124,173)"/>
<path d="M0 0 C2.875 -0.125 2.875 -0.125 6 0 C6.66 0.66 7.32 1.32 8 2 C7.319375 2.495 7.319375 2.495 6.625 3 C4.15680026 6.0377843 3.81156856 9.19187061 3 13 C2.29091804 10.45500042 2.00764514 8.62538808 2.0625 5.9375 C2.25885068 2.80666091 2.25885068 2.80666091 0 0 Z " fill="#7F1817" transform="translate(121,123)"/>
<path d="M0 0 C0.99 0 1.98 0 3 0 C2.50168276 3.68754757 1.89932357 5.60490662 -1 8 C-1 7.34 -1 6.68 -1 6 C-1.99 5.67 -2.98 5.34 -4 5 C-2.1875 2.5 -2.1875 2.5 0 0 Z " fill="#A1604D" transform="translate(107,93)"/>
<path d="M0 0 C1.53192402 1.53192402 3.06083656 3.06327002 4.5625 4.625 C5.972776 6.10933511 5.972776 6.10933511 8 7 C8 7.99 8 8.98 8 10 C8.66 10.33 9.32 10.66 10 11 C9.67 12.32 9.34 13.64 9 15 C9 14.01 9 13.02 9 12 C8.39671875 11.7525 7.7934375 11.505 7.171875 11.25 C4.64277047 9.79440027 3.73227493 8.48875791 2.25 6 C1.82203125 5.29875 1.3940625 4.5975 0.953125 3.875 C0 2 0 2 0 0 Z " fill="#AF9193" transform="translate(52,71)"/>
<path d="M0 0 C1.98 0 3.96 0 6 0 C6.33 0.66 6.66 1.32 7 2 C6.0625 4.125 6.0625 4.125 5 6 C2.525 5.01 2.525 5.01 0 4 C0 2.68 0 1.36 0 0 Z " fill="#382015" transform="translate(108,56)"/>
<path d="M0 0 C2.046875 3.71875 2.046875 3.71875 1.625 6.25 C1.41875 6.8275 1.2125 7.405 1 8 C0.34 8 -0.32 8 -1 8 C-1.33 11.96 -1.66 15.92 -2 20 C-2.33 20 -2.66 20 -3 20 C-3.40850553 12.91923749 -1.90420731 6.80074041 0 0 Z " fill="#362B54" transform="translate(130,145)"/>
<path d="M0 0 C0 2.31 0 4.62 0 7 C-0.66 6.01 -1.32 5.02 -2 4 C-2.99 4.99 -3.98 5.98 -5 7 C-4.6875 4.625 -4.6875 4.625 -4 2 C-1 0 -1 0 0 0 Z M-6 7 C-5.67 7.99 -5.34 8.98 -5 10 C-6.4375 12.1875 -6.4375 12.1875 -8 14 C-7.125 8.125 -7.125 8.125 -6 7 Z " fill="#0E2A54" transform="translate(142,144)"/>
<path d="M0 0 C0.66 0 1.32 0 2 0 C2.680625 0.721875 3.36125 1.44375 4.0625 2.1875 C7.44283863 5.75111 11.67034523 7.78329222 16 10 C15.01 10.495 15.01 10.495 14 11 C11.25 9.85546875 11.25 9.85546875 8 8.1875 C6.39125 7.37345703 6.39125 7.37345703 4.75 6.54296875 C2 5 2 5 0 3 C0 2.01 0 1.02 0 0 Z " fill="#859DBA" transform="translate(145,123)"/>
<path d="M0 0 C0.66 0 1.32 0 2 0 C1.40363898 3.8763466 -0.44306252 6.17207569 -2.875 9.1875 C-3.57367188 10.06792969 -4.27234375 10.94835937 -4.9921875 11.85546875 C-7 14 -7 14 -10 15 C-10 14.34 -10 13.68 -10 13 C-8.81830454 11.85206727 -7.63428823 10.70640762 -6.4375 9.57421875 C-4.23749206 7.16497093 -2.71805361 4.40217265 -1.11328125 1.57421875 C-0.74589844 1.05472656 -0.37851563 0.53523438 0 0 Z " fill="#6C3C40" transform="translate(117,109)"/>
<path d="M0 0 C0.33 3.63 0.66 7.26 1 11 C0.67 10.34 0.34 9.68 0 9 C-0.66 9 -1.32 9 -2 9 C-2 8.01 -2 7.02 -2 6 C-3.94009522 4.29467677 -3.94009522 4.29467677 -6 3 C-1.125 0 -1.125 0 0 0 Z " fill="#051947" transform="translate(135,112)"/>
<path d="M0 0 C3.96 0 7.92 0 12 0 C11.67 0.99 11.34 1.98 11 3 C5.04296875 3.29296875 5.04296875 3.29296875 3 3 C2.01 2.01 1.02 1.02 0 0 Z " fill="#AB5C48" transform="translate(87,92)"/>
<path d="M0 0 C2.31 0 4.62 0 7 0 C7.33 1.65 7.66 3.3 8 5 C7.01 5 6.02 5 5 5 C5 4.34 5 3.68 5 3 C3.35 3 1.7 3 0 3 C0 2.01 0 1.02 0 0 Z " fill="#090707" transform="translate(97,83)"/>
<path d="M0 0 C0 4.144163 -0.88134668 7.60168334 -3.5 10.875 C-5 12 -5 12 -7 12 C-7.33 12.66 -7.66 13.32 -8 14 C-7.36561334 10.53466285 -5.98631946 8.20125787 -4 5.3125 C-3.46375 4.52488281 -2.9275 3.73726562 -2.375 2.92578125 C-1 1 -1 1 0 0 Z " fill="#74787D" transform="translate(60,14)"/>
<path d="M0 0 C0.33 0.66 0.66 1.32 1 2 C1.99 2 2.98 2 4 2 C4 2.66 4 3.32 4 4 C5.11375 4.226875 6.2275 4.45375 7.375 4.6875 C11 6 11 6 12.4375 8.625 C12.623125 9.40875 12.80875 10.1925 13 11 C9.125 9.25 9.125 9.25 8 7 C5.47266765 6.34444881 5.47266765 6.34444881 3 6 C3 5.01 3 4.02 3 3 C2.01 3 1.02 3 0 3 C0 2.01 0 1.02 0 0 Z " fill="#11326D" transform="translate(121,96)"/>
<path d="M0 0 C0.66 0 1.32 0 2 0 C2.29162929 4.95769796 2.12940055 8.02806853 -1 12 C-1.66 12 -2.32 12 -3 12 C-2.68950274 10.56206608 -2.3765224 9.1246682 -2.0625 7.6875 C-1.88847656 6.88699219 -1.71445312 6.08648437 -1.53515625 5.26171875 C-1 3 -1 3 0 0 Z " fill="#5A82C3" transform="translate(4,174)"/>
<path d="M0 0 C1.32 0.66 2.64 1.32 4 2 C3.34 2 2.68 2 2 2 C1.5359375 2.928125 1.5359375 2.928125 1.0625 3.875 C0.375 5.25 -0.3125 6.625 -1 8 C-3.0625 8.625 -3.0625 8.625 -5 9 C-3.7508258 5.54074837 -2.32472205 2.85306797 0 0 Z " fill="#2864B6" transform="translate(35,133)"/>
<path d="M0 0 C0 0.66 0 1.32 0 2 C1.98 2 3.96 2 6 2 C6 2.33 6 2.66 6 3 C4.04235617 3.19456705 2.08384679 3.38044247 0.125 3.5625 C-0.96554688 3.66691406 -2.05609375 3.77132812 -3.1796875 3.87890625 C-6 4 -6 4 -8 3 C-8.33 3.66 -8.66 4.32 -9 5 C-9 4.01 -9 3.02 -9 2 C-2.25 0 -2.25 0 0 0 Z " fill="#76372C" transform="translate(87,88)"/>
<path d="M0 0 C0.99 0 1.98 0 3 0 C1.83857315 4.35535069 0.92300495 6.64619703 -3 9 C-3.33 7.35 -3.66 5.7 -4 4 C-3.01 4 -2.02 4 -1 4 C-0.67 2.68 -0.34 1.36 0 0 Z " fill="#BC887B" transform="translate(134,72)"/>
<path d="M0 0 C3.79588866 0.54226981 5.47211993 2.20127563 8 5 C5.36 5 2.72 5 0 5 C0 3.35 0 1.7 0 0 Z " fill="#915340" transform="translate(113,47)"/>
<path d="M0 0 C0.33 0.66 0.66 1.32 1 2 C0.0625 4.625 0.0625 4.625 -1 7 C-3.64 7 -6.28 7 -9 7 C-8.1646875 6.38125 -8.1646875 6.38125 -7.3125 5.75 C-4.83804044 3.87743601 -2.4164771 1.94660656 0 0 Z " fill="#0F2B56" transform="translate(160,185)"/>
<path d="M0 0 C0.33 0.99 0.66 1.98 1 3 C0.01 4.485 0.01 4.485 -1 6 C-1.66 6 -2.32 6 -3 6 C-3.0825 6.78375 -3.165 7.5675 -3.25 8.375 C-4 11 -4 11 -6.0625 12.3125 C-7.0215625 12.6528125 -7.0215625 12.6528125 -8 13 C-8 12.34 -8 11.68 -8 11 C-7.5875 10.608125 -7.175 10.21625 -6.75 9.8125 C-4.22014394 7.19229194 -2.7680838 4.18255083 -1 1 C-0.67 0.67 -0.34 0.34 0 0 Z " fill="#12346B" transform="translate(136,148)"/>
<path d="M0 0 C0.66 1.32 1.32 2.64 2 4 C-1.625 9.875 -1.625 9.875 -5 11 C-3.77472971 6.94718288 -2.30119506 3.55639236 0 0 Z " fill="#648FD1" transform="translate(12,154)"/>
<path d="M0 0 C2.19726562 1.85546875 2.19726562 1.85546875 4.39453125 3.7109375 C5.8655046 4.89201099 7.43037794 5.95358529 9 7 C6.36 6.67 3.72 6.34 1 6 C0.67 6.66 0.34 7.32 0 8 C0 5.36 0 2.72 0 0 Z " fill="#A25D4A" transform="translate(82,93)"/>
<path d="M0 0 C0.99 0.33 1.98 0.66 3 1 C2.67 2.98 2.34 4.96 2 7 C1.01 7 0.02 7 -1 7 C-1.33 6.01 -1.66 5.02 -2 4 C-1.34 4 -0.68 4 0 4 C0 2.68 0 1.36 0 0 Z " fill="#A95C48" transform="translate(132,67)"/>
<path d="M0 0 C0.33 0.66 0.66 1.32 1 2 C1.66 2 2.32 2 3 2 C5.125 9.625 5.125 9.625 4 13 C3.32694982 11.39850114 2.66177773 9.79368971 2 8.1875 C1.62875 7.29417969 1.2575 6.40085937 0.875 5.48046875 C0 3 0 3 0 0 Z " fill="#5E6062" transform="translate(49,46)"/>
<path d="M0 0 C0.33 1.32 0.66 2.64 1 4 C-0.43359375 6.140625 -0.43359375 6.140625 -2.4375 8.25 C-3.09621094 8.95640625 -3.75492187 9.6628125 -4.43359375 10.390625 C-4.95050781 10.92171875 -5.46742187 11.4528125 -6 12 C-6.33 11.34 -6.66 10.68 -7 10 C-3.535 5.05 -3.535 5.05 0 0 Z " fill="#A32A22" transform="translate(115,153)"/>
<path d="M0 0 C1.70884005 1.62339805 3.37446717 3.29319053 5 5 C5 5.66 5 6.32 5 7 C3.35 6.67 1.7 6.34 0 6 C-1.125 2.25 -1.125 2.25 0 0 Z " fill="#1E3C65" transform="translate(53,131)"/>
<path d="M0 0 C0 0.66 0 1.32 0 2 C-0.66 2 -1.32 2 -2 2 C-2.28875 2.639375 -2.5775 3.27875 -2.875 3.9375 C-4 6 -4 6 -6 7 C-6.33 6.34 -6.66 5.68 -7 5 C-7.66 4.67 -8.32 4.34 -9 4 C-2.25 0 -2.25 0 0 0 Z " fill="#5472A4" transform="translate(60,99)"/>
<path d="M0 0 C0.33 0 0.66 0 1 0 C1.33 2.97 1.66 5.94 2 9 C0.02 9.99 0.02 9.99 -2 11 C-1.34 7.37 -0.68 3.74 0 0 Z " fill="#555C61" transform="translate(51,28)"/>
<path d="M0 0 C0.66 0 1.32 0 2 0 C1.50168276 3.68754757 0.89932357 5.60490662 -2 8 C-2.66 7.67 -3.32 7.34 -4 7 C-2.79618552 4.50638429 -1.54571278 2.31856917 0 0 Z " fill="#173A67" transform="translate(167,173)"/>
<path d="M0 0 C0.33 0 0.66 0 1 0 C1.125 5.75 1.125 5.75 0 8 C-0.66 8 -1.32 8 -2 8 C-2.33 8.66 -2.66 9.32 -3 10 C-3.66 9.34 -4.32 8.68 -5 8 C-3.625 6 -3.625 6 -2 4 C-1.34 4 -0.68 4 0 4 C0 2.68 0 1.36 0 0 Z " fill="#1D457D" transform="translate(140,137)"/>
<path d="M0 0 C4.12989477 4.26311718 4.61271765 7.28758534 5 13 C4.01 12.67 3.02 12.34 2 12 C2.66 12 3.32 12 4 12 C3.71125 11.38511719 3.4225 10.77023438 3.125 10.13671875 C2.75375 9.32847656 2.3825 8.52023438 2 7.6875 C1.62875 6.88699219 1.2575 6.08648437 0.875 5.26171875 C0 3 0 3 0 0 Z " fill="#656D76" transform="translate(62,86)"/>
<path d="M0 0 C2.50037734 2.17424117 3.43628586 3.73045798 4 7 C3.34 7 2.68 7 2 7 C2 6.34 2 5.68 2 5 C0.68 5.33 -0.64 5.66 -2 6 C-1.34 4.02 -0.68 2.04 0 0 Z " fill="#562628" transform="translate(55,60)"/>
<path d="M0 0 C5.75 0.75 5.75 0.75 8 3 C5.36 3.33 2.72 3.66 0 4 C0 2.68 0 1.36 0 0 Z " fill="#562C29" transform="translate(102,49)"/>
<path d="M0 0 C0 2.97 0 5.94 0 9 C-0.33 9 -0.66 9 -1 9 C-1.33 7.02 -1.66 5.04 -2 3 C-4.475 4.485 -4.475 4.485 -7 6 C-5.96849913 3.42124782 -5.35028898 2.21229635 -2.9375 0.75 C-1 0 -1 0 0 0 Z " fill="#245799" transform="translate(41,135)"/>
<path d="M0 0 C1.32 1.32 2.64 2.64 4 4 C3.01 4 2.02 4 1 4 C1 7.63 1 11.26 1 15 C0.67 15 0.34 15 0 15 C0 10.05 0 5.1 0 0 Z " fill="#5A4053" transform="translate(71,103)"/>
<path d="M0 0 C0.66 0.33 1.32 0.66 2 1 C1.1875 3.9375 1.1875 3.9375 0 7 C-0.99 7.33 -1.98 7.66 -3 8 C-2.74438677 5.6568787 -2.40729228 3.32156597 -2 1 C-1.34 0.67 -0.68 0.34 0 0 Z " fill="#4976C1" transform="translate(8,164)"/>
<path d="M0 0 C3.96670899 0.44074544 6.68811135 1.82361603 10 4 C9.01 4.495 9.01 4.495 8 5 C4.86560559 3.92770717 1.93804317 2.52342979 -1 1 C-0.67 0.67 -0.34 0.34 0 0 Z " fill="#A2685D" transform="translate(69,127)"/>
<path d="M0 0 C0.66 0.33 1.32 0.66 2 1 C0.7391988 2.03319813 -0.53403258 3.05124379 -1.8125 4.0625 C-2.87404297 4.91521484 -2.87404297 4.91521484 -3.95703125 5.78515625 C-4.63121094 6.18605469 -5.30539063 6.58695313 -6 7 C-6.99 6.67 -7.98 6.34 -9 6 C-8.34 6 -7.68 6 -7 6 C-7 5.34 -7 4.68 -7 4 C-1.7265625 0.77734375 -1.7265625 0.77734375 0 0 Z " fill="#AC6651" transform="translate(108,126)"/>
<path d="M0 0 C0.33 0.66 0.66 1.32 1 2 C3.11327425 2.90725434 3.11327425 2.90725434 5.5625 3.625 C6.38878906 3.88539062 7.21507812 4.14578125 8.06640625 4.4140625 C9.02353516 4.70410156 9.02353516 4.70410156 10 5 C5.74938644 6.41687119 3.28148375 5.19320039 -1 4 C-0.67 2.68 -0.34 1.36 0 0 Z " fill="#7E91B6" transform="translate(123,94)"/>
<path d="M0 0 C1.9375 0.6875 1.9375 0.6875 2.9375 2.6875 C-0.0625 3.6875 -0.0625 3.6875 -3.0625 3.6875 C-4.0525 4.1825 -4.0525 4.1825 -5.0625 4.6875 C-4.6875 2.75 -4.6875 2.75 -4.0625 0.6875 C-2.0625 -0.3125 -2.0625 -0.3125 0 0 Z " fill="#B27156" transform="translate(95.0625,60.3125)"/>
<path d="M0 0 C0.99 0.99 1.98 1.98 3 3 C2.01 4.485 2.01 4.485 1 6 C0.01 5.67 -0.98 5.34 -2 5 C-2 3.68 -2 2.36 -2 1 C-1.34 0.67 -0.68 0.34 0 0 Z " fill="#BE856F" transform="translate(70,128)"/>
<path d="M0 0 C0.33 0.99 0.66 1.98 1 3 C-3.95 4.485 -3.95 4.485 -9 6 C-9 5.34 -9 4.68 -9 4 C-8.34 4 -7.68 4 -7 4 C-7 3.34 -7 2.68 -7 2 C-4.69 2 -2.38 2 0 2 C0 1.34 0 0.68 0 0 Z " fill="#1E3A7B" transform="translate(67,97)"/>
<path d="M0 0 C0.99 0.99 1.98 1.98 3 3 C2.67 3.99 2.34 4.98 2 6 C0.35 6.33 -1.3 6.66 -3 7 C-2.01 4.69 -1.02 2.38 0 0 Z " fill="#6D2D27" transform="translate(133,59)"/>
<path d="M0 0 C-0.66 1.65 -1.32 3.3 -2 5 C-2.99 4.67 -3.98 4.34 -5 4 C-5.33 4.66 -5.66 5.32 -6 6 C-6 4.68 -6 3.36 -6 2 C-3 0 -3 0 0 0 Z " fill="#9A5340" transform="translate(106,56)"/>
<path d="M0 0 C-0.75 1.9375 -0.75 1.9375 -2 4 C-4 4.8125 -4 4.8125 -6 5 C-6.66 4.67 -7.32 4.34 -8 4 C-2.25 0 -2.25 0 0 0 Z " fill="#668DC8" transform="translate(41,129)"/>
<path d="M0 0 C2.31 0 4.62 0 7 0 C7 0.66 7 1.32 7 2 C5 3.625 5 3.625 3 5 C2.87625 4.360625 2.7525 3.72125 2.625 3.0625 C2.315625 2.0415625 2.315625 2.0415625 2 1 C1.34 0.67 0.68 0.34 0 0 Z " fill="#4A0D15" transform="translate(63,124)"/>
<path d="M0 0 C0.66 0.33 1.32 0.66 2 1 C0.515 4.96 0.515 4.96 -1 9 C-1.33 9 -1.66 9 -2 9 C-2.25 3.375 -2.25 3.375 0 0 Z " fill="#866F73" transform="translate(53,60)"/>
<path d="M0 0 C0.66 0 1.32 0 2 0 C1.67 2.64 1.34 5.28 1 8 C0.34 7.67 -0.32 7.34 -1 7 C-0.67 4.69 -0.34 2.38 0 0 Z " fill="#303E43" transform="translate(53,26)"/>
<path d="M0 0 C0.66 0.33 1.32 0.66 2 1 C1.01 2.32 0.02 3.64 -1 5 C-2.32 4.67 -3.64 4.34 -5 4 C-3.35 2.68 -1.7 1.36 0 0 Z " fill="#738EBD" transform="translate(29,135)"/>
<path d="M0 0 C0.66 0 1.32 0 2 0 C4.1519437 3.22791555 4.20086443 4.28400809 4 8 C3.01 7.67 2.02 7.34 1 7 C0.67 4.69 0.34 2.38 0 0 Z " fill="#71141D" transform="translate(131,125)"/>
</svg>
